# Exported from Wings 3D 2.2.5
mtllib CabinetDoor.mtl
o CabinetDoor
#36 vertices, 30 faces
v 0.0000000e+0 2.4492936e-17 0.0000000e+0
v 0.0000000e+0 2.4492936e-17 0.10000000
v 0.0000000e+0 0.90000000 0.0000000e+0
v 0.0000000e+0 0.90000000 0.10000000
v 1.00000000 2.4492936e-17 0.0000000e+0
v 1.00000000 2.4492936e-17 0.10000000
v 1.00000000 0.90000000 0.0000000e+0
v 1.00000000 0.90000000 0.10000000
v 0.0000000e+0 0.40000000 0.10000000
v 0.0000000e+0 0.50000000 0.10000000
v 1.00000000 0.40000000 0.10000000
v 1.00000000 0.50000000 0.10000000
v 0.83333333 2.4492936e-17 0.10000000
v 0.96666667 2.4492936e-17 0.10000000
v 0.83333333 0.90000000 0.10000000
v 0.96666667 0.90000000 0.10000000
v 0.83333333 0.40000000 0.10000000
v 0.96666667 0.40000000 0.10000000
v 0.83333333 0.50000000 0.10000000
v 0.96666667 0.50000000 0.10000000
v 0.96666667 0.40000000 0.15000000
v 0.96666667 0.50000000 0.15000000
v 0.83333333 0.50000000 0.15000000
v 0.83333333 0.40000000 0.15000000
v 0.96666667 0.40000000 0.25000000
v 0.96666667 0.50000000 0.25000000
v 0.83333333 0.50000000 0.25000000
v 0.83333333 0.40000000 0.25000000
v 0.99666667 0.37000000 0.15000000
v 0.99666667 0.53000000 0.15000000
v 0.80333333 0.53000000 0.15000000
v 0.80333333 0.37000000 0.15000000
v 0.99666667 0.37000000 0.25000000
v 0.99666667 0.53000000 0.25000000
v 0.80333333 0.53000000 0.25000000
v 0.80333333 0.37000000 0.25000000
vt 0.0000000e+0 7.2164497e-16
vt 0.0000000e+0 0.50000000
vt 0.0000000e+0 0.95000000
vt 0.0000000e+0 1.00000000
vt 2.7755576e-17 0.50000000
vt 8.3266727e-17 0.95000000
vt 1.1102230e-16 0.45000000
vt 5.4817262e-14 0.20000000
vt 6.8750561e-14 0.45000000
vt 7.0748962e-14 0.25000000
vt 1.6666667e-2 0.45000000
vt 8.3333333e-2 0.45000000
vt 0.41666667 0.95000000
vt 0.41666667 0.0000000e+0
vt 0.41666667 0.20000000
vt 0.41666667 0.25000000
vt 0.41666667 0.45000000
vt 0.48333333 0.95000000
vt 0.48333333 1.4543922e-14
vt 0.48333333 0.20000000
vt 0.48333333 0.25000000
vt 0.48333333 0.45000000
vt 0.50000000 0.95000000
vt 0.50000000 0.50000000
vt 0.50000000 0.95000000
vt 0.50000000 1.00000000
vt 0.50000000 0.45000000
vt 0.50000000 0.50000000
vt 0.50000000 8.3266727e-16
vt 0.50000000 0.20000000
vt 0.50000000 0.25000000
vt 0.50000000 0.0000000e+0
vt 0.50000000 0.45000000
vt 0.50000000 0.45000000
vt 0.50000000 0.90000000
vt 0.50000000 0.98000000
vt 0.50000000 0.20000000
vt 0.50000000 0.25000000
vt 0.50000000 0.45000000
vt 0.55000000 0.21000000
vt 0.55000000 0.36500000
vt 0.55000000 0.39000000
vt 0.55000000 0.45000000
vt 0.55000000 0.65000000
vt 0.55000000 0.70000000
vt 0.55000000 0.90000000
vt 0.55000000 0.90000000
vt 0.55000000 0.98000000
vt 0.55000000 8.0000000e-2
vt 0.55000000 0.16000000
vt 0.55000000 0.16000000
vt 0.55000000 0.21000000
vt 0.55000000 0.26000000
vt 0.55000000 0.26000000
vt 0.55000000 0.34000000
vt 0.55000000 0.36500000
vt 0.55000000 0.45000000
vt 0.55000000 0.0000000e+0
vt 0.55000000 0.0000000e+0
vt 0.55000000 8.0000000e-2
vt 0.56500000 6.5000000e-2
vt 0.56500000 9.5000000e-2
vt 0.56500000 0.14500000
vt 0.56500000 1.5000000e-2
vt 0.60000000 0.26000000
vt 0.60000000 0.34000000
vt 0.61666667 0.34000000
vt 0.61666667 0.36500000
vt 0.61666667 0.39000000
vt 0.61666667 0.39000000
vt 0.61666667 0.34000000
vt 0.61666667 0.36500000
vt 0.61666667 0.39000000
vt 0.61666667 0.44000000
vt 0.63166667 9.5000000e-2
vt 0.63166667 0.14500000
vt 0.63166667 1.5000000e-2
vt 0.63166667 6.5000000e-2
vt 0.64166667 0.34000000
vt 0.64166667 0.39000000
vt 0.64166667 0.39000000
vt 0.64166667 0.44000000
vt 0.64666667 0.16000000
vt 0.64666667 0.21000000
vt 0.64666667 0.26000000
vt 0.64666667 8.0000000e-2
vt 0.64666667 1.8735014e-16
vt 0.64666667 8.0000000e-2
vt 0.64666667 0.16000000
vn 0.0000000e+0 -1.00000000 -3.0814879e-32
vn 0.0000000e+0 0.0000000e+0 -1.00000000
vn -1.00000000 0.0000000e+0 0.0000000e+0
vn 0.0000000e+0 -1.00000000 -3.0814879e-32
vn 0.0000000e+0 0.0000000e+0 1.00000000
vn -1.00000000 0.0000000e+0 0.0000000e+0
vn 0.0000000e+0 1.00000000 -1.1102230e-15
vn 0.0000000e+0 0.0000000e+0 -1.00000000
vn -1.00000000 0.0000000e+0 0.0000000e+0
vn 0.0000000e+0 1.00000000 -1.1102230e-15
vn -1.00000000 0.0000000e+0 0.0000000e+0
vn 0.0000000e+0 0.0000000e+0 1.00000000
vn 0.0000000e+0 -1.00000000 -3.0814879e-32
vn 0.0000000e+0 0.0000000e+0 -1.00000000
vn 1.00000000 0.0000000e+0 0.0000000e+0
vn 0.0000000e+0 -1.00000000 -3.0814879e-32
vn 1.00000000 0.0000000e+0 0.0000000e+0
vn 0.0000000e+0 0.0000000e+0 1.00000000
vn 0.0000000e+0 1.00000000 -1.1102230e-15
vn 0.0000000e+0 0.0000000e+0 -1.00000000
vn 1.00000000 0.0000000e+0 0.0000000e+0
vn 0.0000000e+0 1.00000000 -1.1102230e-15
vn 1.00000000 0.0000000e+0 0.0000000e+0
vn 0.0000000e+0 0.0000000e+0 1.00000000
vn 0.0000000e+0 0.0000000e+0 1.00000000
vn -1.00000000 0.0000000e+0 0.0000000e+0
vn 0.0000000e+0 0.0000000e+0 1.00000000
vn -1.00000000 0.0000000e+0 0.0000000e+0
vn 0.0000000e+0 0.0000000e+0 1.00000000
vn 0.0000000e+0 0.0000000e+0 1.00000000
vn 1.00000000 0.0000000e+0 0.0000000e+0
vn 0.0000000e+0 0.0000000e+0 1.00000000
vn 0.0000000e+0 0.0000000e+0 1.00000000
vn 1.00000000 0.0000000e+0 0.0000000e+0
vn 0.0000000e+0 0.0000000e+0 1.00000000
vn 0.0000000e+0 0.0000000e+0 1.00000000
vn 0.0000000e+0 -1.00000000 -3.0814879e-32
vn 0.0000000e+0 0.0000000e+0 1.00000000
vn 0.0000000e+0 0.0000000e+0 1.00000000
vn 0.0000000e+0 -1.00000000 -3.0814879e-32
vn 0.0000000e+0 0.0000000e+0 1.00000000
vn 0.0000000e+0 0.0000000e+0 1.00000000
vn 0.0000000e+0 1.00000000 -1.1102230e-15
vn 0.0000000e+0 0.0000000e+0 1.00000000
vn 0.0000000e+0 0.0000000e+0 1.00000000
vn 0.0000000e+0 1.00000000 -1.1102230e-15
vn 0.0000000e+0 0.0000000e+0 1.00000000
vn 0.0000000e+0 0.0000000e+0 1.00000000
vn 0.0000000e+0 0.0000000e+0 1.00000000
vn 0.0000000e+0 0.0000000e+0 1.00000000
vn 0.0000000e+0 0.0000000e+0 1.00000000
vn -1.00000000 0.0000000e+0 0.0000000e+0
vn 0.0000000e+0 -1.00000000 0.0000000e+0
vn 0.0000000e+0 0.0000000e+0 1.00000000
vn 0.0000000e+0 0.0000000e+0 1.00000000
vn 0.0000000e+0 0.0000000e+0 1.00000000
vn 1.00000000 0.0000000e+0 0.0000000e+0
vn 0.0000000e+0 -1.00000000 0.0000000e+0
vn 0.0000000e+0 0.0000000e+0 1.00000000
vn 0.0000000e+0 0.0000000e+0 1.00000000
vn 0.0000000e+0 0.0000000e+0 1.00000000
vn 0.0000000e+0 1.00000000 0.0000000e+0
vn -1.00000000 0.0000000e+0 0.0000000e+0
vn 0.0000000e+0 0.0000000e+0 1.00000000
vn 0.0000000e+0 0.0000000e+0 1.00000000
vn 0.0000000e+0 0.0000000e+0 1.00000000
vn 1.00000000 0.0000000e+0 0.0000000e+0
vn 0.0000000e+0 1.00000000 0.0000000e+0
vn 1.00000000 0.0000000e+0 0.0000000e+0
vn 0.0000000e+0 -1.00000000 0.0000000e+0
vn 0.0000000e+0 0.0000000e+0 -1.00000000
vn 0.0000000e+0 0.0000000e+0 -1.00000000
vn 1.00000000 0.0000000e+0 0.0000000e+0
vn 0.0000000e+0 1.00000000 0.0000000e+0
vn 0.0000000e+0 0.0000000e+0 -1.00000000
vn 0.0000000e+0 0.0000000e+0 -1.00000000
vn 0.0000000e+0 1.00000000 0.0000000e+0
vn -1.00000000 0.0000000e+0 0.0000000e+0
vn 0.0000000e+0 0.0000000e+0 -1.00000000
vn 0.0000000e+0 0.0000000e+0 -1.00000000
vn -1.00000000 0.0000000e+0 0.0000000e+0
vn 0.0000000e+0 -1.00000000 0.0000000e+0
vn 0.0000000e+0 0.0000000e+0 -1.00000000
vn 0.0000000e+0 0.0000000e+0 -1.00000000
vn 0.0000000e+0 0.0000000e+0 1.00000000
vn 0.0000000e+0 0.0000000e+0 1.00000000
vn 0.0000000e+0 0.0000000e+0 1.00000000
vn 0.0000000e+0 0.0000000e+0 1.00000000
vn 0.0000000e+0 0.0000000e+0 1.00000000
vn 0.0000000e+0 0.0000000e+0 1.00000000
vn 0.0000000e+0 0.0000000e+0 1.00000000
vn 0.0000000e+0 0.0000000e+0 1.00000000
vn 0.0000000e+0 0.0000000e+0 1.00000000
vn 0.0000000e+0 0.0000000e+0 1.00000000
vn 0.0000000e+0 0.0000000e+0 1.00000000
vn 0.0000000e+0 0.0000000e+0 1.00000000
vn 1.00000000 0.0000000e+0 0.0000000e+0
vn 0.0000000e+0 -1.00000000 0.0000000e+0
vn 0.0000000e+0 0.0000000e+0 -1.00000000
vn 0.0000000e+0 0.0000000e+0 -1.00000000
vn 1.00000000 0.0000000e+0 0.0000000e+0
vn 0.0000000e+0 1.00000000 0.0000000e+0
vn 0.0000000e+0 0.0000000e+0 -1.00000000
vn 0.0000000e+0 0.0000000e+0 -1.00000000
vn 0.0000000e+0 1.00000000 0.0000000e+0
vn -1.00000000 0.0000000e+0 0.0000000e+0
vn 0.0000000e+0 0.0000000e+0 -1.00000000
vn 0.0000000e+0 0.0000000e+0 -1.00000000
vn -1.00000000 0.0000000e+0 0.0000000e+0
vn 0.0000000e+0 -1.00000000 0.0000000e+0
vn 0.0000000e+0 0.0000000e+0 -1.00000000
vn 0.0000000e+0 0.0000000e+0 -1.00000000
vn 1.00000000 0.0000000e+0 0.0000000e+0
vn 0.0000000e+0 -1.00000000 0.0000000e+0
vn 0.0000000e+0 0.0000000e+0 1.00000000
vn 0.0000000e+0 0.0000000e+0 1.00000000
vn 1.00000000 0.0000000e+0 0.0000000e+0
vn 0.0000000e+0 1.00000000 0.0000000e+0
vn 0.0000000e+0 0.0000000e+0 1.00000000
vn 0.0000000e+0 0.0000000e+0 1.00000000
vn 0.0000000e+0 1.00000000 0.0000000e+0
vn -1.00000000 0.0000000e+0 0.0000000e+0
vn 0.0000000e+0 0.0000000e+0 1.00000000
vn 0.0000000e+0 0.0000000e+0 1.00000000
vn -1.00000000 0.0000000e+0 0.0000000e+0
vn 0.0000000e+0 -1.00000000 0.0000000e+0
vn 0.0000000e+0 0.0000000e+0 1.00000000
vn 0.0000000e+0 0.0000000e+0 1.00000000
g CabinetDoor_Black
usemtl Black
s 1
f 26/78/89 34/88/119 35/49/123 27/61/92
f 28/64/95 36/59/127 33/87/115 25/77/86
f 29/65/97 30/66/101 34/55/117 33/54/113
s 2
f 26/78/88 27/61/91 28/64/94 25/77/85
f 30/84/102 31/40/105 35/51/121 34/83/118
s 3
f 25/77/87 33/87/116 34/88/120 26/78/90
f 31/36/106 32/35/109 36/47/125 35/48/122
s 4
f 27/61/93 35/49/124 36/59/128 28/64/96
f 33/52/114 36/84/126 32/85/110 29/53/98
g CabinetDoor_Wood
usemtl Wood
s 1
f 2/43/6 9/44/26 10/45/28 4/46/11 3/35/9 1/34/3
f 5/58/15 7/57/21 8/39/23 12/38/34 11/37/31 6/32/17
f 15/17/45 19/16/61 20/21/65 16/22/47
f 18/56/58 21/55/70 24/71/82 17/72/53
f 24/75/83 32/86/111 31/89/108 23/76/80
s 2
f 2/1/5 13/14/38 17/15/49 9/8/25
f 4/6/10 15/13/43 16/18/46 8/25/22 7/26/19 3/4/7
f 11/30/32 18/20/55 14/19/42 6/29/18
f 17/70/52 24/80/81 23/82/78 19/74/63
f 20/81/67 22/73/73 21/67/69 18/79/57
f 21/62/72 29/60/100 32/86/112 24/75/84
s 3
f 3/23/8 7/3/20 5/5/14 1/24/2
f 9/8/27 17/15/50 19/16/59 10/10/29
f 12/31/35 20/21/64 18/20/56 11/30/33
f 14/19/41 18/20/54 17/15/51 13/14/39
f 23/76/79 31/89/107 30/50/103 22/63/75
s 4
f 1/28/1 5/2/13 6/7/16 14/11/40 13/12/37 2/27/4
f 4/9/12 10/10/30 19/16/60 15/17/44
f 8/33/24 16/22/48 20/21/66 12/31/36
f 19/42/62 23/41/77 22/68/74 20/69/68
f 22/63/76 30/50/104 29/60/99 21/62/71
