# Exported from Wings 3D 2.2.5
mtllib CabinetBlank.mtl
o CabinetBlank
#8 vertices, 6 faces
v 0.0000000e+0 -3.0616170e-17 0.0000000e+0
v 0.0000000e+0 -3.0616170e-17 1.00000000
v 0.0000000e+0 0.90000000 0.0000000e+0
v 0.0000000e+0 0.90000000 1.00000000
v 1.00000000 -3.0616170e-17 0.0000000e+0
v 1.00000000 -3.0616170e-17 1.00000000
v 1.00000000 0.90000000 0.0000000e+0
v 1.00000000 0.90000000 1.00000000
vt 0.0000000e+0 0.30000000
vt 0.0000000e+0 0.60000000
vt 0.0000000e+0 0.93333333
vt 5.5511151e-17 0.30000000
vt 5.5511151e-17 0.60000000
vt 1.1102230e-16 0.0000000e+0
vt 0.33333333 0.60000000
vt 0.33333333 0.93333333
vt 0.33333333 0.30000000
vt 0.33333333 0.60000000
vt 0.33333333 0.90000000
vt 0.33333333 0.0000000e+0
vt 0.33333333 0.30000000
vt 0.33333333 0.60000000
vt 0.33333333 8.3266727e-17
vt 0.66666667 0.30000000
vt 0.66666667 0.60000000
vt 0.66666667 0.90000000
vt 0.66666667 0.0000000e+0
vt 0.66666667 0.0000000e+0
vt 0.66666667 0.33333333
vt 1.00000000 0.0000000e+0
vt 1.00000000 0.33333333
vn 0.0000000e+0 -1.00000000 0.0000000e+0
vn 0.0000000e+0 0.0000000e+0 -1.00000000
vn -1.00000000 0.0000000e+0 0.0000000e+0
vn 0.0000000e+0 -1.00000000 0.0000000e+0
vn 0.0000000e+0 0.0000000e+0 1.00000000
vn -1.00000000 0.0000000e+0 0.0000000e+0
vn 0.0000000e+0 1.00000000 0.0000000e+0
vn 0.0000000e+0 0.0000000e+0 -1.00000000
vn -1.00000000 0.0000000e+0 0.0000000e+0
vn 0.0000000e+0 1.00000000 0.0000000e+0
vn 0.0000000e+0 0.0000000e+0 1.00000000
vn -1.00000000 0.0000000e+0 0.0000000e+0
vn 0.0000000e+0 -1.00000000 0.0000000e+0
vn 0.0000000e+0 0.0000000e+0 -1.00000000
vn 1.00000000 0.0000000e+0 0.0000000e+0
vn 0.0000000e+0 -1.00000000 0.0000000e+0
vn 0.0000000e+0 0.0000000e+0 1.00000000
vn 1.00000000 0.0000000e+0 0.0000000e+0
vn 0.0000000e+0 1.00000000 0.0000000e+0
vn 0.0000000e+0 0.0000000e+0 -1.00000000
vn 1.00000000 0.0000000e+0 0.0000000e+0
vn 0.0000000e+0 1.00000000 0.0000000e+0
vn 0.0000000e+0 0.0000000e+0 1.00000000
vn 1.00000000 0.0000000e+0 0.0000000e+0
g CabinetBlank_Wood
usemtl Wood
s 1
f 2/19/6 4/16/12 3/13/9 1/12/3
f 5/9/15 7/7/21 8/2/24 6/4/18
s 2
f 2/6/5 6/15/17 8/13/23 4/1/11
f 3/18/8 7/11/20 5/14/14 1/17/2
s 3
f 1/23/1 5/21/13 6/20/16 2/22/4
f 4/5/10 8/10/22 7/8/19 3/3/7
