# Exported from Wings 3D 2.2.5
mtllib Couch.mtl
o Couch
#28 vertices, 23 faces
v 0.0000000e+0 -4.2862638e-17 1.1102230e-16
v 0.0000000e+0 -4.2862638e-17 1.40000000
v 0.0000000e+0 0.40000000 1.1102230e-16
v 0.0000000e+0 0.40000000 1.40000000
v 2.00000000 -4.2862638e-17 1.1102230e-16
v 2.00000000 -4.2862638e-17 1.40000000
v 2.00000000 0.40000000 1.1102230e-16
v 2.00000000 0.40000000 1.40000000
v 2.00000000 0.40000000 0.30000000
v 0.0000000e+0 0.40000000 0.30000000
v 0.26666667 0.40000000 1.40000000
v 1.73333333 0.40000000 1.40000000
v 0.26666667 0.40000000 0.30000000
v 1.73333333 0.40000000 0.30000000
v 0.0000000e+0 1.20000000 4.4408921e-16
v 0.0000000e+0 1.20000000 0.30000000
v 0.26666667 1.20000000 0.30000000
v 1.73333333 1.20000000 0.30000000
v 2.00000000 1.20000000 0.30000000
v 2.00000000 1.20000000 4.4408921e-16
v 1.73333333 0.80000000 0.30000000
v 1.73333333 0.80000000 1.40000000
v 2.00000000 0.80000000 1.40000000
v 2.00000000 0.80000000 0.30000000
v 0.26666667 0.80000000 1.40000000
v 0.26666667 0.80000000 0.30000000
v 0.0000000e+0 0.80000000 0.30000000
v 0.0000000e+0 0.80000000 1.40000000
vt 0.0000000e+0 7.4074074e-2
vt 0.0000000e+0 0.14814815
vt 0.0000000e+0 0.40740741
vt 0.0000000e+0 0.55555556
vt 0.0000000e+0 0.70370370
vt 8.3266727e-17 0.62962963
vt 1.9428903e-16 0.55555556
vt 2.2204460e-16 0.40740741
vt 2.4980018e-16 0.14814815
vt 3.0531133e-16 3.8857806e-16
vt 4.9382716e-2 0.40740741
vt 4.9382716e-2 0.55555556
vt 4.9382716e-2 0.14814815
vt 4.9382716e-2 7.4074074e-2
vt 0.20370370 0.70370370
vt 0.20370370 0.62962963
vt 0.20370370 0.77777778
vt 0.25925926 0.62962963
vt 0.25925926 0.77777778
vt 0.25925926 0.55555556
vt 0.25925926 0.62962963
vt 0.25925926 0.55555556
vt 0.32098765 0.55555556
vt 0.32098765 0.40740741
vt 0.32098765 0.14814815
vt 0.32098765 7.4074074e-2
vt 0.37037037 0.14814815
vt 0.37037037 0.55555556
vt 0.37037037 0.40740741
vt 0.37037037 0.0000000e+0
vt 0.37037037 0.40740741
vt 0.37037037 0.14814815
vt 0.37037037 7.4074074e-2
vt 0.37037037 0.55555556
vt 0.37037037 0.0000000e+0
vt 0.37037037 7.4074074e-2
vt 0.37037037 0.22222222
vt 0.37037037 0.22222222
vt 0.37037037 0.27777778
vt 0.37037037 0.27777778
vt 0.37037037 0.48148148
vt 0.41975309 0.22222222
vt 0.46296296 0.62962963
vt 0.46296296 0.55555556
vt 0.46296296 0.55555556
vt 0.46296296 0.75925926
vt 0.51234568 0.55555556
vt 0.51234568 0.75925926
vt 0.57407407 0.48148148
vt 0.57407407 0.55555556
vt 0.64197531 0.27777778
vt 0.64197531 0.48148148
vt 0.64197531 0.55555556
vt 0.64197531 0.27777778
vt 0.64197531 0.48148148
vt 0.69135802 0.27777778
vt 0.69135802 0.35185185
vt 0.69135802 0.48148148
vt 0.69135802 0.22222222
vt 0.69135802 0.48148148
vt 0.69135802 0.55555556
vt 0.74074074 0.27777778
vt 0.74074074 0.35185185
vt 0.74074074 8.3266727e-17
vt 0.74074074 7.4074074e-2
vt 0.74074074 7.4074074e-2
vt 0.74074074 0.22222222
vt 0.74074074 0.22222222
vt 0.74074074 0.27777778
vt 0.74074074 0.22222222
vt 0.79629630 7.4074074e-2
vt 0.79629630 0.14814815
vt 0.79629630 0.22222222
vt 1.00000000 0.0000000e+0
vt 1.00000000 7.4074074e-2
vt 1.00000000 0.14814815
vn 0.0000000e+0 -1.00000000 0.0000000e+0
vn 0.0000000e+0 0.0000000e+0 -1.00000000
vn -1.00000000 0.0000000e+0 0.0000000e+0
vn 0.0000000e+0 -1.00000000 0.0000000e+0
vn 0.0000000e+0 0.0000000e+0 1.00000000
vn -1.00000000 0.0000000e+0 0.0000000e+0
vn 0.0000000e+0 0.0000000e+0 -1.00000000
vn -1.00000000 0.0000000e+0 0.0000000e+0
vn -1.00000000 0.0000000e+0 0.0000000e+0
vn 0.0000000e+0 4.1633363e-16 -1.00000000
vn 0.0000000e+0 0.0000000e+0 1.00000000
vn -1.00000000 0.0000000e+0 0.0000000e+0
vn -1.00000000 0.0000000e+0 0.0000000e+0
vn 0.0000000e+0 0.0000000e+0 1.00000000
vn 0.0000000e+0 -1.00000000 0.0000000e+0
vn 0.0000000e+0 0.0000000e+0 -1.00000000
vn 1.00000000 0.0000000e+0 0.0000000e+0
vn 0.0000000e+0 -1.00000000 0.0000000e+0
vn 0.0000000e+0 0.0000000e+0 1.00000000
vn 1.00000000 0.0000000e+0 0.0000000e+0
vn 0.0000000e+0 0.0000000e+0 -1.00000000
vn 1.00000000 0.0000000e+0 0.0000000e+0
vn 1.00000000 0.0000000e+0 0.0000000e+0
vn 0.0000000e+0 4.1633363e-16 -1.00000000
vn 0.0000000e+0 0.0000000e+0 1.00000000
vn 1.00000000 0.0000000e+0 0.0000000e+0
vn 0.0000000e+0 0.0000000e+0 1.00000000
vn 1.00000000 0.0000000e+0 0.0000000e+0
vn 1.00000000 0.0000000e+0 0.0000000e+0
vn 0.0000000e+0 -3.4694470e-16 1.00000000
vn 1.00000000 0.0000000e+0 0.0000000e+0
vn 1.00000000 0.0000000e+0 0.0000000e+0
vn 0.0000000e+0 0.0000000e+0 -1.00000000
vn -1.00000000 0.0000000e+0 0.0000000e+0
vn -1.00000000 0.0000000e+0 0.0000000e+0
vn 0.0000000e+0 -3.4694470e-16 1.00000000
vn 0.0000000e+0 0.0000000e+0 -1.00000000
vn -1.00000000 0.0000000e+0 0.0000000e+0
vn 0.0000000e+0 0.0000000e+0 1.00000000
vn 0.0000000e+0 1.00000000 0.0000000e+0
vn 1.00000000 0.0000000e+0 0.0000000e+0
vn 0.0000000e+0 0.0000000e+0 1.00000000
vn 0.0000000e+0 0.0000000e+0 1.00000000
vn 0.0000000e+0 1.00000000 0.0000000e+0
vn -1.00000000 0.0000000e+0 0.0000000e+0
vn 0.0000000e+0 0.0000000e+0 1.00000000
vn 0.0000000e+0 1.00000000 0.0000000e+0
vn 0.0000000e+0 -3.4694470e-16 1.00000000
vn 0.0000000e+0 -3.4694470e-16 1.00000000
vn 1.00000000 0.0000000e+0 0.0000000e+0
vn 0.0000000e+0 0.0000000e+0 -1.00000000
vn 0.0000000e+0 1.00000000 0.0000000e+0
vn 0.0000000e+0 -3.4694470e-16 1.00000000
vn 0.0000000e+0 -3.4694470e-16 1.00000000
vn -1.00000000 0.0000000e+0 0.0000000e+0
vn 0.0000000e+0 0.0000000e+0 -1.00000000
vn 0.0000000e+0 1.00000000 0.0000000e+0
vn -1.00000000 0.0000000e+0 0.0000000e+0
vn 0.0000000e+0 4.1633363e-16 -1.00000000
vn 0.0000000e+0 1.00000000 0.0000000e+0
vn -1.00000000 0.0000000e+0 0.0000000e+0
vn 0.0000000e+0 -3.4694470e-16 1.00000000
vn 0.0000000e+0 1.00000000 0.0000000e+0
vn 0.0000000e+0 -3.4694470e-16 1.00000000
vn 0.0000000e+0 -3.4694470e-16 1.00000000
vn 0.0000000e+0 1.00000000 0.0000000e+0
vn 0.0000000e+0 -3.4694470e-16 1.00000000
vn 0.0000000e+0 -3.4694470e-16 1.00000000
vn 0.0000000e+0 1.00000000 0.0000000e+0
vn 0.0000000e+0 -3.4694470e-16 1.00000000
vn 1.00000000 0.0000000e+0 0.0000000e+0
vn 0.0000000e+0 1.00000000 0.0000000e+0
vn 1.00000000 0.0000000e+0 0.0000000e+0
vn 0.0000000e+0 4.1633363e-16 -1.00000000
vn 0.0000000e+0 1.00000000 0.0000000e+0
vn -1.00000000 0.0000000e+0 0.0000000e+0
vn 0.0000000e+0 0.0000000e+0 -1.00000000
vn 0.0000000e+0 1.00000000 0.0000000e+0
vn -1.00000000 0.0000000e+0 0.0000000e+0
vn 0.0000000e+0 0.0000000e+0 1.00000000
vn 0.0000000e+0 1.00000000 0.0000000e+0
vn 0.0000000e+0 0.0000000e+0 1.00000000
vn 1.00000000 0.0000000e+0 0.0000000e+0
vn 0.0000000e+0 1.00000000 0.0000000e+0
vn 1.00000000 0.0000000e+0 0.0000000e+0
vn 0.0000000e+0 0.0000000e+0 -1.00000000
vn 0.0000000e+0 1.00000000 0.0000000e+0
vn 1.00000000 0.0000000e+0 0.0000000e+0
vn 0.0000000e+0 0.0000000e+0 1.00000000
vn 0.0000000e+0 1.00000000 0.0000000e+0
vn 1.00000000 0.0000000e+0 0.0000000e+0
vn 0.0000000e+0 0.0000000e+0 -1.00000000
vn 0.0000000e+0 1.00000000 0.0000000e+0
vn 0.0000000e+0 0.0000000e+0 -1.00000000
vn -1.00000000 0.0000000e+0 0.0000000e+0
vn 0.0000000e+0 1.00000000 0.0000000e+0
vn -1.00000000 0.0000000e+0 0.0000000e+0
vn 0.0000000e+0 0.0000000e+0 1.00000000
g Couch_Black
usemtl Black
s 1
f 2/74/6 4/75/12 10/71/34 3/66/8 1/64/3
f 9/16/32 24/15/85 23/5/83 8/6/28
f 12/51/44 14/52/52 13/41/47 11/40/40
f 16/38/60 17/42/63 18/59/66 19/68/69 20/69/72 15/39/57
f 26/48/90 27/46/93 28/44/96 25/47/87
s 2
f 2/10/5 6/30/19 8/33/25 12/26/43 11/14/39 4/1/11
f 3/65/7 7/36/21 5/35/16 1/64/2
f 4/75/13 28/76/97 27/72/95 10/71/38
f 7/18/23 20/19/73 19/17/71 9/16/31
f 10/71/35 16/73/61 15/70/58 3/66/9
f 13/49/50 26/50/91 25/34/88 11/41/41
f 14/24/53 18/23/67 17/12/65 13/11/49
f 14/62/56 21/63/77 24/57/86 9/56/33
s 3
f 3/65/10 15/67/59 20/37/74 7/36/24
f 5/20/17 7/18/22 9/16/29 8/6/26 6/7/20
f 8/33/27 23/32/82 22/25/80 12/26/46
f 9/29/30 19/28/70 18/23/68 14/24/54
f 11/14/42 25/13/89 28/9/98 4/1/14
f 13/11/48 17/12/64 16/4/62 10/3/36
s 4
f 1/31/1 5/8/15 6/2/18 2/27/4
f 10/60/37 27/61/94 26/53/92 13/52/51
f 22/54/78 23/56/81 24/58/84 21/55/75
s 5
f 12/45/45 22/43/79 21/21/76 14/22/55
