# Exported from Wings 3D 2.2.5
mtllib CounterTop.mtl
o CounterTop
#10 vertices, 7 faces
v 0.0000000e+0 0.90000000 0.0000000e+0
v 0.0000000e+0 0.90000000 1.00000000
v 0.0000000e+0 1.00000000 0.0000000e+0
v 2.00000000 0.90000000 0.0000000e+0
v 2.00000000 0.90000000 1.00000000
v 2.00000000 1.00000000 0.0000000e+0
v 0.0000000e+0 0.95000000 1.00000000
v 0.0000000e+0 1.00000000 0.95000000
v 2.00000000 0.95000000 1.00000000
v 2.00000000 1.00000000 0.95000000
vt 0.0000000e+0 3.1140329e-2
vt 0.0000000e+0 0.88990231
vt 0.0000000e+0 0.88990231
vt 0.0000000e+0 0.93394139
vt 0.0000000e+0 0.95596092
vt 0.0000000e+0 0.97798046
vt 5.5511151e-17 0.95596092
vt 1.1102230e-16 0.0000000e+0
vt 1.1102230e-16 0.44951155
vt 1.1102230e-16 0.93394139
vt 2.2204460e-16 0.44951155
vt 2.2019538e-2 1.00000000
vt 0.44039076 0.95596092
vt 0.44039076 1.00000000
vt 0.44039076 0.95596092
vt 0.44039076 1.00000000
vt 0.85876198 1.00000000
vt 0.88078152 0.93394139
vt 0.88078152 0.95596092
vt 0.88078152 0.44951155
vt 0.88078152 0.88990231
vt 0.88078152 0.44951155
vt 0.88078152 0.88990231
vt 0.88078152 0.93394139
vt 0.88078152 0.95596092
vt 0.88078152 0.97798046
vt 0.88078152 1.7763568e-15
vt 0.88078152 3.1140329e-2
vn 0.0000000e+0 -1.00000000 0.0000000e+0
vn 0.0000000e+0 0.0000000e+0 -1.00000000
vn -1.00000000 0.0000000e+0 0.0000000e+0
vn 0.0000000e+0 -1.00000000 0.0000000e+0
vn 0.0000000e+0 0.0000000e+0 1.00000000
vn -1.00000000 0.0000000e+0 0.0000000e+0
vn 0.0000000e+0 1.00000000 0.0000000e+0
vn 0.0000000e+0 0.0000000e+0 -1.00000000
vn -1.00000000 0.0000000e+0 0.0000000e+0
vn 0.0000000e+0 -1.00000000 0.0000000e+0
vn 0.0000000e+0 0.0000000e+0 -1.00000000
vn 1.00000000 0.0000000e+0 0.0000000e+0
vn 0.0000000e+0 -1.00000000 0.0000000e+0
vn 0.0000000e+0 0.0000000e+0 1.00000000
vn 1.00000000 0.0000000e+0 0.0000000e+0
vn 0.0000000e+0 1.00000000 0.0000000e+0
vn 0.0000000e+0 0.0000000e+0 -1.00000000
vn 1.00000000 0.0000000e+0 0.0000000e+0
vn 0.0000000e+0 0.0000000e+0 1.00000000
vn -1.00000000 0.0000000e+0 0.0000000e+0
vn 0.0000000e+0 0.70710678 0.70710678
vn 0.0000000e+0 1.00000000 0.0000000e+0
vn -1.00000000 0.0000000e+0 0.0000000e+0
vn 0.0000000e+0 0.70710678 0.70710678
vn 0.0000000e+0 0.0000000e+0 1.00000000
vn 1.00000000 0.0000000e+0 0.0000000e+0
vn 0.0000000e+0 0.70710678 0.70710678
vn 0.0000000e+0 1.00000000 0.0000000e+0
vn 1.00000000 0.0000000e+0 0.0000000e+0
vn 0.0000000e+0 0.70710678 0.70710678
g CounterTop_CounterTop
usemtl CounterTop
s 1
f 2/25/6 7/26/20 8/17/23 3/16/9 1/15/3
f 4/13/12 6/14/18 10/12/29 9/6/26 5/7/15
s 2
f 2/4/5 5/18/14 9/19/25 7/5/19
f 8/1/22 10/28/28 6/20/16 3/11/7
s 3
f 3/24/8 6/10/17 4/3/11 1/23/2
f 9/27/27 10/28/30 8/1/24 7/8/21
s 4
f 1/21/1 4/2/10 5/9/13 2/22/4
