# Exported from Wings 3D 2.2.5
mtllib CounterTopCorner.mtl
o CounterTopCorner
#22 vertices, 18 faces
v 1.00000000 0.90000000 0.0000000e+0
v 1.00000000 0.90000000 1.00000000
v 1.00000000 1.00000000 0.0000000e+0
v 1.00000000 0.90000000 0.0000000e+0
v 1.00000000 0.90000000 1.00000000
v 1.00000000 1.00000000 0.0000000e+0
v 1.00000000 0.95000000 1.00000000
v 1.00000000 1.00000000 0.95000000
v 1.00000000 0.95000000 1.00000000
v 1.00000000 1.00000000 0.95000000
v -4.4408921e-16 0.90000000 1.00000000
v 1.00000000 0.90000000 1.00000000
v -4.4408921e-16 1.00000000 1.00000000
v -8.8817842e-16 0.90000000 1.00000000
v 1.00000000 0.90000000 1.00000000
v -8.8817842e-16 1.00000000 1.00000000
v 1.00000000 0.95000000 1.00000000
v 0.95000000 1.00000000 1.00000000
v 1.00000000 0.95000000 1.00000000
v 0.95000000 1.00000000 1.00000000
v -4.4408921e-16 1.00000000 4.4408921e-16
v -4.4408921e-16 0.90000000 4.4408921e-16
vt 0.0000000e+0 0.0000000e+0
vt 0.0000000e+0 1.00000000
vt 3.6082248e-16 0.58227425
vt 3.6082248e-16 0.58227425
vt 2.2978040e-5 2.7359123e-5
vt 0.22978549 0.32162934
vt 0.22979813 0.32169224
vt 0.22988548 0.29435343
vt 0.23480330 0.29191788
vt 0.23482238 0.29195377
vt 0.24358700 0.28069903
vt 0.24362192 0.28071494
vt 0.24403030 0.28090991
vt 0.24451663 0.29113712
vt 0.24451663 0.29113712
vt 0.25784529 0.31090078
vt 0.25799681 0.31108398
vt 0.25806740 0.31122819
vt 0.25806740 0.31122819
vt 0.41772575 1.00000000
vt 0.41772575 0.58227425
vt 0.48902852 0.58226861
vt 0.48903325 0.58227425
vt 0.51645532 0.55497919
vt 0.51645679 5.5511151e-16
vt 0.51645679 0.41772575
vt 0.51645679 0.45949833
vt 0.51645679 0.45949833
vt 0.51645679 0.50127090
vt 0.51645679 0.54304348
vt 0.51645679 0.55498041
vt 0.51645679 0.41772575
vt 0.91329626 0.54304348
vt 0.91329626 0.0000000e+0
vt 0.93418255 0.50127090
vt 0.93418255 0.52215719
vt 0.93418255 0.45949833
vt 0.93418255 0.50127090
vt 0.93418255 0.41772575
vt 0.93418255 0.45949833
vt 0.93418255 2.0886288e-2
vt 0.93418255 0.41772575
vn 0.0000000e+0 0.0000000e+0 0.0000000e+0
vn 0.0000000e+0 0.0000000e+0 0.0000000e+0
vn 0.0000000e+0 -1.00000000 -1.1102230e-16
vn -4.4408921e-16 0.0000000e+0 -1.00000000
vn 0.0000000e+0 0.0000000e+0 0.0000000e+0
vn 0.0000000e+0 0.0000000e+0 0.0000000e+0
vn 0.0000000e+0 -1.00000000 -1.1102230e-16
vn 0.0000000e+0 0.0000000e+0 0.0000000e+0
vn 0.0000000e+0 0.0000000e+0 0.0000000e+0
vn 0.0000000e+0 0.0000000e+0 0.0000000e+0
vn 0.0000000e+0 1.00000000 0.0000000e+0
vn -4.4408921e-16 0.0000000e+0 -1.00000000
vn 0.0000000e+0 0.0000000e+0 0.0000000e+0
vn 0.0000000e+0 0.0000000e+0 0.0000000e+0
vn 1.00000000 0.0000000e+0 0.0000000e+0
vn 0.0000000e+0 0.0000000e+0 0.0000000e+0
vn 0.0000000e+0 0.0000000e+0 0.0000000e+0
vn 1.00000000 0.0000000e+0 0.0000000e+0
vn 0.0000000e+0 0.0000000e+0 0.0000000e+0
vn 0.0000000e+0 0.0000000e+0 0.0000000e+0
vn 1.00000000 0.0000000e+0 0.0000000e+0
vn 0.0000000e+0 0.0000000e+0 0.0000000e+0
vn 0.0000000e+0 0.0000000e+0 0.0000000e+0
vn 0.57735027 0.57735027 0.57735027
vn 0.0000000e+0 0.0000000e+0 0.0000000e+0
vn 0.0000000e+0 0.0000000e+0 0.0000000e+0
vn 0.0000000e+0 0.0000000e+0 0.0000000e+0
vn 0.0000000e+0 1.00000000 0.0000000e+0
vn 0.57735027 0.57735027 0.57735027
vn 0.0000000e+0 0.0000000e+0 0.0000000e+0
vn 1.00000000 0.0000000e+0 0.0000000e+0
vn 0.0000000e+0 0.0000000e+0 0.0000000e+0
vn 0.0000000e+0 0.0000000e+0 0.0000000e+0
vn 1.00000000 0.0000000e+0 0.0000000e+0
vn 0.0000000e+0 0.0000000e+0 0.0000000e+0
vn 0.0000000e+0 0.0000000e+0 0.0000000e+0
vn 0.0000000e+0 0.0000000e+0 0.0000000e+0
vn -9.8374192e-16 -2.2485530e-16 1.00000000
vn 0.0000000e+0 0.0000000e+0 0.0000000e+0
vn 0.0000000e+0 0.0000000e+0 0.0000000e+0
vn -9.8374192e-16 -2.2485530e-16 1.00000000
vn 0.0000000e+0 0.0000000e+0 0.0000000e+0
vn 0.0000000e+0 0.0000000e+0 0.0000000e+0
vn -9.8374192e-16 -2.2485530e-16 1.00000000
vn 0.0000000e+0 0.0000000e+0 0.0000000e+0
vn 0.0000000e+0 0.0000000e+0 0.0000000e+0
vn 0.0000000e+0 -1.00000000 -1.1102230e-16
vn -1.00000000 0.0000000e+0 -4.4408921e-16
vn 0.0000000e+0 0.0000000e+0 0.0000000e+0
vn 0.0000000e+0 0.0000000e+0 0.0000000e+0
vn 0.0000000e+0 -1.00000000 -1.1102230e-16
vn 0.0000000e+0 0.0000000e+0 0.0000000e+0
vn 0.0000000e+0 0.0000000e+0 0.0000000e+0
vn 0.0000000e+0 0.0000000e+0 0.0000000e+0
vn -1.00000000 0.0000000e+0 -4.4408921e-16
vn 0.0000000e+0 1.00000000 0.0000000e+0
vn 0.0000000e+0 0.0000000e+0 0.0000000e+0
vn -9.8374192e-16 -2.2485530e-16 1.00000000
vn 0.0000000e+0 0.0000000e+0 0.0000000e+0
vn 0.0000000e+0 0.0000000e+0 0.0000000e+0
vn -9.8374192e-16 -2.2485530e-16 1.00000000
vn 0.0000000e+0 0.0000000e+0 0.0000000e+0
vn 0.0000000e+0 0.0000000e+0 0.0000000e+0
vn 0.0000000e+0 0.0000000e+0 0.0000000e+0
vn 0.57735027 0.57735027 0.57735027
vn 0.0000000e+0 0.0000000e+0 0.0000000e+0
vn 0.0000000e+0 0.0000000e+0 0.0000000e+0
vn 0.0000000e+0 0.0000000e+0 0.0000000e+0
vn 0.0000000e+0 1.00000000 0.0000000e+0
vn 0.57735027 0.57735027 0.57735027
vn -1.00000000 0.0000000e+0 -4.4408921e-16
vn 0.0000000e+0 1.00000000 0.0000000e+0
vn -4.4408921e-16 0.0000000e+0 -1.00000000
vn 0.0000000e+0 -1.00000000 -1.1102230e-16
vn -1.00000000 0.0000000e+0 -4.4408921e-16
vn -4.4408921e-16 0.0000000e+0 -1.00000000
g CounterTopCorner_CounterTop
usemtl CounterTop
s 1
f 1/24/1 4/31/13 5/11/16 2/12/5
f 1/28/4 22/37/76 21/38/73 3/29/12
f 7/17/25 19/16/66 15/13/52 2/12/8
f 9/8/32 10/7/35 8/6/27 7/17/23
f 11/5/36 14/1/45 15/13/49 12/19/39
f 18/10/60 20/9/67 16/14/53 13/15/42
s 2
f 2/12/6 5/11/17 9/8/30 7/17/22
f 2/4/7 15/3/51 14/21/47 22/20/74 1/2/3
f 8/6/26 10/7/33 6/22/19 3/23/9
f 8/6/29 20/9/70 19/16/65 7/17/24
f 12/35/41 17/36/58 18/33/61 13/30/44 11/29/38
s 3
f 3/42/11 21/32/72 16/25/56 20/34/69 8/41/28
f 4/31/15 6/22/21 10/7/34 9/8/31 5/11/18
f 13/15/43 16/14/54 14/1/46 11/5/37
f 19/16/64 20/9/68 18/10/62 17/18/59
s 4
f 3/23/10 6/22/20 4/31/14 1/24/2
f 12/19/40 15/13/50 19/16/63 17/18/57
f 16/40/55 21/27/71 22/26/75 14/39/48
