# Exported from Wings 3D 2.2.5
mtllib CubeToy.mtl
o CubeToy
#8 vertices, 6 faces
v -0.10000000 -0.10000000 -0.10000000
v -0.10000000 -0.10000000 0.10000000
v -0.10000000 0.10000000 -0.10000000
v -0.10000000 0.10000000 0.10000000
v 1.0000000e-1 -0.10000000 -0.10000000
v 1.0000000e-1 -0.10000000 0.10000000
v 1.0000000e-1 0.10000000 -0.10000000
v 1.0000000e-1 0.10000000 0.10000000
vt 0.0000000e+0 0.0000000e+0
vt 0.0000000e+0 0.33333333
vt 0.0000000e+0 0.66666667
vt 2.7755576e-17 0.66666667
vt 2.7755576e-17 1.00000000
vt 8.3266727e-17 0.33333333
vt 0.33333333 0.0000000e+0
vt 0.33333333 0.33333333
vt 0.33333333 1.00000000
vt 0.33333333 0.66666667
vt 0.33333333 0.66666667
vt 0.33333333 5.5511151e-17
vt 0.33333333 0.33333333
vt 0.33333333 0.33333333
vt 0.33333333 0.66666667
vt 0.33333333 1.00000000
vt 0.66666667 0.66666667
vt 0.66666667 1.00000000
vt 0.66666667 0.0000000e+0
vt 0.66666667 0.33333333
vt 0.66666667 0.0000000e+0
vt 0.66666667 0.33333333
vt 1.00000000 0.33333333
vt 1.00000000 5.5511151e-17
vn 0.0000000e+0 -1.00000000 0.0000000e+0
vn 0.0000000e+0 0.0000000e+0 -1.00000000
vn -1.00000000 0.0000000e+0 0.0000000e+0
vn 0.0000000e+0 -1.00000000 0.0000000e+0
vn 0.0000000e+0 0.0000000e+0 1.00000000
vn -1.00000000 0.0000000e+0 0.0000000e+0
vn 0.0000000e+0 1.00000000 0.0000000e+0
vn 0.0000000e+0 0.0000000e+0 -1.00000000
vn -1.00000000 0.0000000e+0 0.0000000e+0
vn 0.0000000e+0 1.00000000 0.0000000e+0
vn 0.0000000e+0 0.0000000e+0 1.00000000
vn -1.00000000 0.0000000e+0 0.0000000e+0
vn 0.0000000e+0 -1.00000000 0.0000000e+0
vn 0.0000000e+0 0.0000000e+0 -1.00000000
vn 1.00000000 0.0000000e+0 0.0000000e+0
vn 0.0000000e+0 -1.00000000 0.0000000e+0
vn 0.0000000e+0 0.0000000e+0 1.00000000
vn 1.00000000 0.0000000e+0 0.0000000e+0
vn 0.0000000e+0 1.00000000 0.0000000e+0
vn 0.0000000e+0 0.0000000e+0 -1.00000000
vn 1.00000000 0.0000000e+0 0.0000000e+0
vn 0.0000000e+0 1.00000000 0.0000000e+0
vn 0.0000000e+0 0.0000000e+0 1.00000000
vn 1.00000000 0.0000000e+0 0.0000000e+0
g CubeToy_Blue
usemtl Blue
s 1
f 2/24/6 4/23/12 3/20/9 1/21/3
f 5/17/15 7/18/21 8/16/24 6/15/18
g CubeToy_Green
usemtl Green
s 3
f 4/3/10 8/10/22 7/9/19 3/5/7
g CubeToy_Red
usemtl Red
s 2
f 2/2/5 6/8/17 8/11/23 4/4/11
f 3/22/8 7/14/20 5/12/14 1/19/2
g CubeToy_Yellow
usemtl Yellow
s 3
f 1/13/1 5/6/13 6/1/16 2/7/4
