# Exported from Wings 3D 2.2.5
mtllib OctahedronToy.mtl
o OctahedronToy
#6 vertices, 8 faces
v 0.20000000 0.0000000e+0 0.0000000e+0
v -0.20000000 0.0000000e+0 0.0000000e+0
v 0.0000000e+0 0.20000000 0.0000000e+0
v 0.0000000e+0 -0.20000000 0.0000000e+0
v 0.0000000e+0 0.0000000e+0 0.20000000
v 0.0000000e+0 0.0000000e+0 -0.20000000
vt 0.0000000e+0 0.22927406
vt 0.0000000e+0 0.77072594
vt 0.27072594 0.50000000
vt 0.27072594 0.50000000
vt 0.28867513 0.75000000
vt 0.28867513 0.25000000
vt 0.30662433 1.00000000
vt 0.30662433 0.0000000e+0
vt 0.57735027 0.72927406
vt 0.57735027 0.27072594
vn 0.57735027 0.57735027 0.57735027
vn 0.57735027 -0.57735027 0.57735027
vn 0.57735027 0.57735027 -0.57735027
vn 0.57735027 -0.57735027 -0.57735027
vn -0.57735027 0.57735027 0.57735027
vn -0.57735027 -0.57735027 0.57735027
vn -0.57735027 0.57735027 -0.57735027
vn -0.57735027 -0.57735027 -0.57735027
vn 0.57735027 0.57735027 0.57735027
vn -0.57735027 0.57735027 0.57735027
vn 0.57735027 0.57735027 -0.57735027
vn -0.57735027 0.57735027 -0.57735027
vn 0.57735027 -0.57735027 0.57735027
vn -0.57735027 -0.57735027 0.57735027
vn 0.57735027 -0.57735027 -0.57735027
vn -0.57735027 -0.57735027 -0.57735027
vn 0.57735027 0.57735027 0.57735027
vn -0.57735027 0.57735027 0.57735027
vn 0.57735027 -0.57735027 0.57735027
vn -0.57735027 -0.57735027 0.57735027
vn 0.57735027 0.57735027 -0.57735027
vn -0.57735027 0.57735027 -0.57735027
vn 0.57735027 -0.57735027 -0.57735027
vn -0.57735027 -0.57735027 -0.57735027
g OctahedronToy_Blue
usemtl Blue
s 2
f 3/4/9 5/1/17 1/6/1
f 4/8/15 6/10/23 1/6/4
g OctahedronToy_Green
usemtl Green
s 2
f 4/3/14 5/9/20 2/5/6
s 3
f 1/6/3 6/10/21 3/4/11
g OctahedronToy_Red
usemtl Red
s 1
f 1/6/2 5/1/19 4/8/13
f 3/7/12 6/2/22 2/5/7
g OctahedronToy_Yellow
usemtl Yellow
s 3
f 2/5/5 5/9/18 3/7/10
f 2/5/8 6/2/24 4/3/16
