# Exported from Wings 3D 2.2.5
mtllib Pan.mtl
o Pan
#88 vertices, 70 faces
v 0.29344428 0.30000000 -6.2373507e-2
v 0.29497647 0.30000000 5.4670658e-2
v 0.25160117 0.30000000 0.16339171
v 0.16992187 0.30000000 0.24723786
v 6.2373507e-2 0.30000000 0.29344428
v -5.4670658e-2 0.30000000 0.29497647
v -0.16339171 0.30000000 0.25160117
v -0.24723786 0.30000000 0.16992187
v -0.29344428 0.30000000 6.2373507e-2
v -0.29497647 0.30000000 -5.4670658e-2
v -0.25160117 0.30000000 -0.16339171
v -0.16992187 0.30000000 -0.24723786
v -6.2373507e-2 0.30000000 -0.29344428
v 5.4670658e-2 0.30000000 -0.29497647
v 0.16339171 0.30000000 -0.25160117
v 0.24723786 0.30000000 -0.16992187
v 0.29344428 0.0000000e+0 -6.2373507e-2
v 0.29497647 0.0000000e+0 5.4670658e-2
v 0.25160117 0.0000000e+0 0.16339171
v 0.16992187 0.0000000e+0 0.24723786
v 6.2373507e-2 0.0000000e+0 0.29344428
v -5.4670658e-2 0.0000000e+0 0.29497647
v -0.16339171 0.0000000e+0 0.25160117
v -0.24723786 0.0000000e+0 0.16992187
v -0.29344428 0.0000000e+0 6.2373507e-2
v -0.29497647 0.0000000e+0 -5.4670658e-2
v -0.25160117 0.0000000e+0 -0.16339171
v -0.16992187 0.0000000e+0 -0.24723786
v -6.2373507e-2 0.0000000e+0 -0.29344428
v 5.4670658e-2 0.0000000e+0 -0.29497647
v 0.16339171 0.0000000e+0 -0.25160117
v 0.24723786 0.0000000e+0 -0.16992187
v 0.26547883 0.30000000 4.9203592e-2
v 0.26409985 0.30000000 -5.6136157e-2
v 0.22251407 0.30000000 -0.15292968
v 0.14705254 0.30000000 -0.22644105
v 4.9203592e-2 0.30000000 -0.26547883
v -5.6136157e-2 0.30000000 -0.26409985
v -0.15292968 0.30000000 -0.22251407
v -0.22644105 0.30000000 -0.14705254
v -0.26547883 0.30000000 -4.9203592e-2
v -0.26409985 0.30000000 5.6136157e-2
v -0.22251407 0.30000000 0.15292968
v -0.14705254 0.30000000 0.22644105
v -4.9203592e-2 0.30000000 0.26547883
v 5.6136157e-2 0.30000000 0.26409985
v 0.15292968 0.30000000 0.22251407
v 0.22644105 0.30000000 0.14705254
v 0.26547883 2.0000000e-2 4.9203592e-2
v 0.26409985 2.0000000e-2 -5.6136157e-2
v 0.22251407 2.0000000e-2 -0.15292968
v 0.14705254 2.0000000e-2 -0.22644105
v 4.9203592e-2 2.0000000e-2 -0.26547883
v -5.6136157e-2 2.0000000e-2 -0.26409985
v -0.15292968 2.0000000e-2 -0.22251407
v -0.22644105 2.0000000e-2 -0.14705254
v -0.26547883 2.0000000e-2 -4.9203592e-2
v -0.26409985 2.0000000e-2 5.6136157e-2
v -0.22251407 2.0000000e-2 0.15292968
v -0.14705254 2.0000000e-2 0.22644105
v -4.9203592e-2 2.0000000e-2 0.26547883
v 5.6136157e-2 2.0000000e-2 0.26409985
v 0.15292968 2.0000000e-2 0.22251407
v 0.22644105 2.0000000e-2 0.14705254
v 5.4670658e-2 0.15000000 -0.29497647
v -6.2373507e-2 0.15000000 -0.29344428
v 5.4670658e-2 0.22500000 -0.29497647
v -6.2373507e-2 0.22500000 -0.29344428
v -5.4670658e-2 0.15000000 0.29497647
v 6.2373507e-2 0.15000000 0.29344428
v -5.4670658e-2 0.22500000 0.29497647
v 6.2373507e-2 0.22500000 0.29344428
v 6.3027987e-2 0.27500000 0.34344000
v -5.4016178e-2 0.27500000 0.34497219
v -5.4016178e-2 0.20000000 0.34497219
v 6.3027987e-2 0.20000000 0.34344000
v 5.4016178e-2 0.20000000 -0.34497219
v -6.3027987e-2 0.20000000 -0.34344000
v -6.3027987e-2 0.27500000 -0.34344000
v 5.4016178e-2 0.27500000 -0.34497219
v 6.4336947e-2 0.27500000 0.44343143
v -5.2707218e-2 0.27500000 0.44496362
v -5.2707218e-2 0.20000000 0.44496362
v 6.4336947e-2 0.20000000 0.44343143
v 5.2707218e-2 0.20000000 -0.44496362
v -6.4336947e-2 0.20000000 -0.44343143
v -6.4336947e-2 0.27500000 -0.44343143
v 5.2707218e-2 0.27500000 -0.44496362
vt 0.0000000e+0 0.15454687
vt 0.0000000e+0 0.60428099
vt 0.0000000e+0 0.95176556
vt 0.0000000e+0 0.95176556
vt 1.3877788e-17 1.00000000
vt 1.9428903e-16 0.75882782
vt 9.8539226e-4 0.22982100
vt 9.8541641e-4 0.52900688
vt 1.8970712e-2 0.60076497
vt 1.9857571e-2 0.53301829
vt 2.7895776e-2 8.4625557e-2
vt 2.7895782e-2 0.67420228
vt 3.0701936e-2 0.29898813
vt 3.0701955e-2 0.45983978
vt 4.4077032e-2 0.66369422
vt 4.6602454e-2 0.47076789
vt 7.5280573e-2 0.95176556
vt 7.5280573e-2 0.75882782
vt 7.5280573e-2 0.95176556
vt 7.5280573e-2 0.95176556
vt 7.5280573e-2 1.00000000
vt 8.0425830e-2 0.72812586
vt 8.0425842e-2 3.0701936e-2
vt 8.4625557e-2 0.35151819
vt 8.4625563e-2 0.40730973
vt 9.1353939e-2 0.71222538
vt 9.5133701e-2 0.42349085
vt 0.14959293 0.75784242
vt 0.14959297 9.8539226e-4
vt 0.15056115 0.95176556
vt 0.15056115 0.75882782
vt 0.15056115 0.90353113
vt 0.15056115 0.85529669
vt 0.15056115 0.95176556
vt 0.15056115 1.00000000
vt 0.15360434 0.73897027
vt 0.15454686 0.37941397
vt 0.15454687 0.37941397
vt 0.15806287 0.39838466
vt 0.22135102 0.73985713
vt 0.22486703 0.75882782
vt 0.22486710 0.0000000e+0
vt 0.22580955 0.39927152
vt 0.22584172 0.75882782
vt 0.22584172 0.85529669
vt 0.22584172 0.90353113
vt 0.22584172 0.95176556
vt 0.22982096 0.38039937
vt 0.22982100 0.37842858
vt 0.28428019 0.71475094
vt 0.28805995 0.42601640
vt 0.29478833 0.73093206
vt 0.29478841 2.7895776e-2
vt 0.29898808 0.41011591
vt 0.29898813 0.34871203
vt 0.30112229 0.75882782
vt 0.30112229 0.75882782
vt 0.30112229 0.95176556
vt 0.30112229 0.95176556
vt 0.33281144 0.66747390
vt 0.33533688 0.47454772
vt 0.34871193 0.67840201
vt 0.34871203 8.0425842e-2
vt 0.35151811 0.46403951
vt 0.35151819 0.29478841
vt 0.35955632 0.60522351
vt 0.36044318 0.53747682
vt 0.37640287 0.75882782
vt 0.37640287 0.95176556
vt 0.37842847 0.60923491
vt 0.37842858 0.14959297
vt 0.37941387 0.53396079
vt 0.37941397 0.53441032
vt 0.37941397 0.72734806
vt 0.37941397 0.22486710
vt 0.37941397 0.20238039
vt 0.37941397 0.34147257
vt 0.37941397 0.53441032
vt 0.38030082 0.13463367
vt 0.40452017 0.26530957
vt 0.40704571 7.2383258e-2
vt 0.45168344 0.75882782
vt 0.45168344 0.95176556
vt 0.45179723 0.31384083
vt 0.45469454 0.53441032
vt 0.45469454 0.34147257
vt 0.45469454 0.72734806
vt 0.45469454 0.53441032
vt 0.45557697 2.5106199e-2
vt 0.51404764 0.34058572
vt 0.51850615 0.0000000e+0
vt 0.52696401 0.75882782
vt 0.52696401 0.95176556
vt 0.52997512 0.53441032
vt 0.52997512 0.34147257
vt 0.52997512 0.67911362
vt 0.52997512 0.63087919
vt 0.52997512 0.72734806
vt 0.52997512 0.53441032
vt 0.58179435 0.34147257
vt 0.58625287 8.8685303e-4
vt 0.60224459 0.75882782
vt 0.60224459 0.86954263
vt 0.60224459 0.95176556
vt 0.60224459 0.75976265
vt 0.60224459 0.91777707
vt 0.60304322 0.82407028
vt 0.60360794 0.86954263
vt 0.60525569 0.53441032
vt 0.60525569 0.34147257
vt 0.60525569 0.72734806
vt 0.60525569 0.63087919
vt 0.60525569 0.67911362
vt 0.60525569 0.53441032
vt 0.63440088 0.90169892
vt 0.63440088 0.94993336
vt 0.64472354 0.31636637
vt 0.64850328 2.7631743e-2
vt 0.67751936 0.75882782
vt 0.67831799 0.82313544
vt 0.67888271 0.86860780
vt 0.68053626 0.72734806
vt 0.68053626 0.53441032
vt 0.68053626 0.53441032
vt 0.68053626 0.34147257
vt 0.69325480 0.26908931
vt 0.69578034 7.6163001e-2
vt 0.69871346 0.90169892
vt 0.69871346 0.94993336
vt 0.71999969 0.20683890
vt 0.72088654 0.13909219
vt 0.72088654 0.36015046
vt 0.72088654 0.72030091
vt 0.72088654 0.83008089
vt 0.72088654 0.94079570
vt 0.72088654 0.18007523
vt 0.72088654 0.36015046
vt 0.72088654 0.54022568
vt 0.72088654 0.0000000e+0
vt 0.72088654 0.54022568
vt 0.72088654 0.18007523
vt 0.72145126 0.89532335
vt 0.72168517 0.76577327
vt 0.72224989 0.72030091
vt 0.72224989 0.83101573
vt 0.78863906 0.72030091
vt 0.78863906 0.36015046
vt 0.78863906 0.54022568
vt 0.78863906 0.54022568
vt 0.78863906 0.36015046
vt 0.78863906 5.5511151e-17
vt 0.78863906 0.18007523
vt 0.78863906 0.18007523
vt 0.79616131 0.83101573
vt 0.79616131 0.94173054
vt 0.79672603 0.89625818
vt 0.79695994 0.76670810
vt 0.79752466 0.72123575
vt 0.79752466 0.75245720
vt 0.79752466 0.80069164
vt 0.79752466 0.83195056
vt 0.79752466 0.83195056
vt 0.79808938 0.87742291
vt 0.79888801 0.94173054
vt 0.85639157 0.72030091
vt 0.85639157 0.36015046
vt 0.85639157 0.54022568
vt 0.85639157 0.54022568
vt 0.85639157 1.3877788e-17
vt 0.85639157 0.18007523
vt 0.85639157 0.36015046
vt 0.85639157 0.18007523
vt 0.86183724 0.80069164
vt 0.86183724 0.75245720
vt 0.87279943 0.83101573
vt 0.87336415 0.87648808
vt 0.87416278 0.94079570
vt 0.87416278 0.83101573
vt 0.87416278 0.87925016
vt 0.89399353 0.72030091
vt 0.89399353 0.76853535
vt 0.89399353 0.75245720
vt 0.89399353 0.80069164
vt 0.90631907 0.86317202
vt 0.90631907 0.91140645
vt 0.92414409 0.36015046
vt 0.92414409 0.54022568
vt 0.92414409 0.72030091
vt 0.92414409 0.54022568
vt 0.92414409 1.3877788e-17
vt 0.92414409 0.18007523
vt 0.92414409 0.18007523
vt 0.92414409 0.36015046
vt 0.95830611 0.80069164
vt 0.95830611 0.75245720
vt 0.97063165 0.86317202
vt 0.97063165 0.91140645
vt 0.99046241 0.72030091
vt 0.99046241 0.76853535
vt 0.99189660 0.54022568
vt 0.99189660 0.72030091
vt 0.99189660 0.36015046
vt 0.99189660 0.54022568
vt 0.99189660 0.0000000e+0
vt 0.99189660 0.18007523
vt 0.99189660 0.36015046
vt 0.99189660 0.18007523
vn 0.91879121 0.0000000e+0 -0.39474386
vn 0.99991433 0.0000000e+0 -1.3089596e-2
vn 0.0000000e+0 1.00000000 0.0000000e+0
vn 0.0000000e+0 1.00000000 0.0000000e+0
vn 0.92880955 0.0000000e+0 0.37055744
vn 0.99991433 0.0000000e+0 -1.3089596e-2
vn 0.0000000e+0 1.00000000 0.0000000e+0
vn 0.0000000e+0 1.00000000 0.0000000e+0
vn 0.71630194 0.0000000e+0 0.69779046
vn 0.92880955 0.0000000e+0 0.37055744
vn 0.0000000e+0 1.00000000 0.0000000e+0
vn 0.0000000e+0 1.00000000 0.0000000e+0
vn 0.39474386 0.0000000e+0 0.91879121
vn 0.71630194 0.0000000e+0 0.69779046
vn 0.0000000e+0 1.00000000 0.0000000e+0
vn 0.0000000e+0 1.00000000 0.0000000e+0
vn 0.39474386 0.0000000e+0 0.91879121
vn 0.0000000e+0 1.00000000 0.0000000e+0
vn 0.0000000e+0 1.00000000 0.0000000e+0
vn 1.3089596e-2 0.0000000e+0 0.99991433
vn -0.37055744 0.0000000e+0 0.92880955
vn 0.0000000e+0 1.00000000 0.0000000e+0
vn 0.0000000e+0 1.00000000 0.0000000e+0
vn 1.3089596e-2 0.0000000e+0 0.99991433
vn -0.69779046 0.0000000e+0 0.71630194
vn -0.37055744 0.0000000e+0 0.92880955
vn 0.0000000e+0 1.00000000 0.0000000e+0
vn 0.0000000e+0 1.00000000 0.0000000e+0
vn -0.91879121 0.0000000e+0 0.39474386
vn -0.69779046 0.0000000e+0 0.71630194
vn 0.0000000e+0 1.00000000 0.0000000e+0
vn 0.0000000e+0 1.00000000 0.0000000e+0
vn -0.99991433 0.0000000e+0 1.3089596e-2
vn -0.91879121 0.0000000e+0 0.39474386
vn 0.0000000e+0 1.00000000 0.0000000e+0
vn 0.0000000e+0 1.00000000 0.0000000e+0
vn -0.92880955 0.0000000e+0 -0.37055744
vn -0.99991433 0.0000000e+0 1.3089596e-2
vn 0.0000000e+0 1.00000000 0.0000000e+0
vn 0.0000000e+0 1.00000000 0.0000000e+0
vn -0.71630194 0.0000000e+0 -0.69779046
vn -0.92880955 0.0000000e+0 -0.37055744
vn 0.0000000e+0 1.00000000 0.0000000e+0
vn 0.0000000e+0 1.00000000 0.0000000e+0
vn -0.39474386 0.0000000e+0 -0.91879121
vn -0.71630194 0.0000000e+0 -0.69779046
vn 0.0000000e+0 1.00000000 0.0000000e+0
vn 0.0000000e+0 1.00000000 0.0000000e+0
vn -0.39474386 0.0000000e+0 -0.91879121
vn 0.0000000e+0 1.00000000 0.0000000e+0
vn 0.0000000e+0 1.00000000 0.0000000e+0
vn -1.3089596e-2 0.0000000e+0 -0.99991433
vn 0.37055744 0.0000000e+0 -0.92880955
vn 0.0000000e+0 1.00000000 0.0000000e+0
vn 0.0000000e+0 1.00000000 0.0000000e+0
vn -1.3089596e-2 0.0000000e+0 -0.99991433
vn 0.69779046 0.0000000e+0 -0.71630194
vn 0.37055744 0.0000000e+0 -0.92880955
vn 0.0000000e+0 1.00000000 0.0000000e+0
vn 0.0000000e+0 1.00000000 0.0000000e+0
vn 0.91879121 0.0000000e+0 -0.39474386
vn 0.69779046 0.0000000e+0 -0.71630194
vn 0.0000000e+0 1.00000000 0.0000000e+0
vn 0.0000000e+0 1.00000000 0.0000000e+0
vn 0.0000000e+0 -1.00000000 0.0000000e+0
vn 0.91879121 0.0000000e+0 -0.39474386
vn 0.99991433 0.0000000e+0 -1.3089596e-2
vn 0.0000000e+0 -1.00000000 0.0000000e+0
vn 0.92880955 0.0000000e+0 0.37055744
vn 0.99991433 0.0000000e+0 -1.3089596e-2
vn 0.0000000e+0 -1.00000000 0.0000000e+0
vn 0.71630194 0.0000000e+0 0.69779046
vn 0.92880955 0.0000000e+0 0.37055744
vn 0.0000000e+0 -1.00000000 0.0000000e+0
vn 0.39474386 0.0000000e+0 0.91879121
vn 0.71630194 0.0000000e+0 0.69779046
vn 0.0000000e+0 -1.00000000 0.0000000e+0
vn 0.39474386 0.0000000e+0 0.91879121
vn 1.3089596e-2 0.0000000e+0 0.99991433
vn 0.0000000e+0 -1.00000000 0.0000000e+0
vn -0.37055744 0.0000000e+0 0.92880955
vn 1.3089596e-2 0.0000000e+0 0.99991433
vn 0.0000000e+0 -1.00000000 0.0000000e+0
vn -0.69779046 0.0000000e+0 0.71630194
vn -0.37055744 0.0000000e+0 0.92880955
vn 0.0000000e+0 -1.00000000 0.0000000e+0
vn -0.91879121 0.0000000e+0 0.39474386
vn -0.69779046 0.0000000e+0 0.71630194
vn 0.0000000e+0 -1.00000000 0.0000000e+0
vn -0.99991433 0.0000000e+0 1.3089596e-2
vn -0.91879121 0.0000000e+0 0.39474386
vn 0.0000000e+0 -1.00000000 0.0000000e+0
vn -0.92880955 0.0000000e+0 -0.37055744
vn -0.99991433 0.0000000e+0 1.3089596e-2
vn 0.0000000e+0 -1.00000000 0.0000000e+0
vn -0.71630194 0.0000000e+0 -0.69779046
vn -0.92880955 0.0000000e+0 -0.37055744
vn 0.0000000e+0 -1.00000000 0.0000000e+0
vn -0.39474386 0.0000000e+0 -0.91879121
vn -0.71630194 0.0000000e+0 -0.69779046
vn 0.0000000e+0 -1.00000000 0.0000000e+0
vn -0.39474386 0.0000000e+0 -0.91879121
vn -1.3089596e-2 0.0000000e+0 -0.99991433
vn 0.0000000e+0 -1.00000000 0.0000000e+0
vn 0.37055744 0.0000000e+0 -0.92880955
vn -1.3089596e-2 0.0000000e+0 -0.99991433
vn 0.0000000e+0 -1.00000000 0.0000000e+0
vn 0.69779046 0.0000000e+0 -0.71630194
vn 0.37055744 0.0000000e+0 -0.92880955
vn 0.0000000e+0 -1.00000000 0.0000000e+0
vn 0.91879121 0.0000000e+0 -0.39474386
vn 0.69779046 0.0000000e+0 -0.71630194
vn 0.0000000e+0 1.00000000 0.0000000e+0
vn 0.0000000e+0 1.00000000 0.0000000e+0
vn -0.99991433 0.0000000e+0 1.3089596e-2
vn -0.92880955 0.0000000e+0 -0.37055744
vn 0.0000000e+0 1.00000000 0.0000000e+0
vn 0.0000000e+0 1.00000000 0.0000000e+0
vn -0.99991433 0.0000000e+0 1.3089596e-2
vn -0.91879121 0.0000000e+0 0.39474386
vn 0.0000000e+0 1.00000000 0.0000000e+0
vn 0.0000000e+0 1.00000000 0.0000000e+0
vn -0.91879121 0.0000000e+0 0.39474386
vn -0.69779046 0.0000000e+0 0.71630194
vn 0.0000000e+0 1.00000000 0.0000000e+0
vn 0.0000000e+0 1.00000000 0.0000000e+0
vn -0.69779046 0.0000000e+0 0.71630194
vn -0.37055744 0.0000000e+0 0.92880955
vn 0.0000000e+0 1.00000000 0.0000000e+0
vn 0.0000000e+0 1.00000000 0.0000000e+0
vn -0.37055744 0.0000000e+0 0.92880955
vn 1.3089596e-2 0.0000000e+0 0.99991433
vn 0.0000000e+0 1.00000000 0.0000000e+0
vn 0.0000000e+0 1.00000000 0.0000000e+0
vn 1.3089596e-2 0.0000000e+0 0.99991433
vn 0.39474386 0.0000000e+0 0.91879121
vn 0.0000000e+0 1.00000000 0.0000000e+0
vn 0.0000000e+0 1.00000000 0.0000000e+0
vn 0.39474386 0.0000000e+0 0.91879121
vn 0.71630194 0.0000000e+0 0.69779046
vn 0.0000000e+0 1.00000000 0.0000000e+0
vn 0.0000000e+0 1.00000000 0.0000000e+0
vn 0.71630194 0.0000000e+0 0.69779046
vn 0.92880955 0.0000000e+0 0.37055744
vn 0.0000000e+0 1.00000000 0.0000000e+0
vn 0.0000000e+0 1.00000000 0.0000000e+0
vn 0.92880955 0.0000000e+0 0.37055744
vn 0.99991433 0.0000000e+0 -1.3089596e-2
vn 0.0000000e+0 1.00000000 0.0000000e+0
vn 0.0000000e+0 1.00000000 0.0000000e+0
vn 0.99991433 0.0000000e+0 -1.3089596e-2
vn 0.91879121 0.0000000e+0 -0.39474386
vn 0.0000000e+0 1.00000000 0.0000000e+0
vn 0.0000000e+0 1.00000000 0.0000000e+0
vn 0.91879121 0.0000000e+0 -0.39474386
vn 0.69779046 0.0000000e+0 -0.71630194
vn 0.0000000e+0 1.00000000 0.0000000e+0
vn 0.0000000e+0 1.00000000 0.0000000e+0
vn 0.69779046 0.0000000e+0 -0.71630194
vn 0.37055744 0.0000000e+0 -0.92880955
vn 0.0000000e+0 1.00000000 0.0000000e+0
vn 0.0000000e+0 1.00000000 0.0000000e+0
vn 0.37055744 0.0000000e+0 -0.92880955
vn -1.3089596e-2 0.0000000e+0 -0.99991433
vn 0.0000000e+0 1.00000000 0.0000000e+0
vn 0.0000000e+0 1.00000000 0.0000000e+0
vn -1.3089596e-2 0.0000000e+0 -0.99991433
vn -0.39474386 0.0000000e+0 -0.91879121
vn 0.0000000e+0 1.00000000 0.0000000e+0
vn 0.0000000e+0 1.00000000 0.0000000e+0
vn -0.39474386 0.0000000e+0 -0.91879121
vn -0.71630194 0.0000000e+0 -0.69779046
vn 0.0000000e+0 1.00000000 0.0000000e+0
vn 0.0000000e+0 1.00000000 0.0000000e+0
vn -0.71630194 0.0000000e+0 -0.69779046
vn -0.92880955 0.0000000e+0 -0.37055744
vn 0.0000000e+0 1.00000000 7.4235558e-18
vn -0.99991433 0.0000000e+0 1.3089596e-2
vn -0.92880955 0.0000000e+0 -0.37055744
vn 0.0000000e+0 1.00000000 7.4235558e-18
vn -0.99991433 0.0000000e+0 1.3089596e-2
vn -0.91879121 0.0000000e+0 0.39474386
vn 0.0000000e+0 1.00000000 7.4235558e-18
vn -0.91879121 0.0000000e+0 0.39474386
vn -0.69779046 0.0000000e+0 0.71630194
vn 0.0000000e+0 1.00000000 7.4235558e-18
vn -0.69779046 0.0000000e+0 0.71630194
vn -0.37055744 0.0000000e+0 0.92880955
vn 0.0000000e+0 1.00000000 7.4235558e-18
vn -0.37055744 0.0000000e+0 0.92880955
vn 1.3089596e-2 0.0000000e+0 0.99991433
vn 0.0000000e+0 1.00000000 7.4235558e-18
vn 1.3089596e-2 0.0000000e+0 0.99991433
vn 0.39474386 0.0000000e+0 0.91879121
vn 0.0000000e+0 1.00000000 7.4235558e-18
vn 0.39474386 0.0000000e+0 0.91879121
vn 0.71630194 0.0000000e+0 0.69779046
vn 0.0000000e+0 1.00000000 7.4235558e-18
vn 0.71630194 0.0000000e+0 0.69779046
vn 0.92880955 0.0000000e+0 0.37055744
vn 0.0000000e+0 1.00000000 7.4235558e-18
vn 0.92880955 0.0000000e+0 0.37055744
vn 0.99991433 0.0000000e+0 -1.3089596e-2
vn 0.0000000e+0 1.00000000 7.4235558e-18
vn 0.99991433 0.0000000e+0 -1.3089596e-2
vn 0.91879121 0.0000000e+0 -0.39474386
vn 0.0000000e+0 1.00000000 7.4235558e-18
vn 0.91879121 0.0000000e+0 -0.39474386
vn 0.69779046 0.0000000e+0 -0.71630194
vn 0.0000000e+0 1.00000000 7.4235558e-18
vn 0.69779046 0.0000000e+0 -0.71630194
vn 0.37055744 0.0000000e+0 -0.92880955
vn 0.0000000e+0 1.00000000 7.4235558e-18
vn 0.37055744 0.0000000e+0 -0.92880955
vn -1.3089596e-2 0.0000000e+0 -0.99991433
vn 0.0000000e+0 1.00000000 7.4235558e-18
vn -1.3089596e-2 0.0000000e+0 -0.99991433
vn -0.39474386 0.0000000e+0 -0.91879121
vn 0.0000000e+0 1.00000000 7.4235558e-18
vn -0.39474386 0.0000000e+0 -0.91879121
vn -0.71630194 0.0000000e+0 -0.69779046
vn 0.0000000e+0 1.00000000 7.4235558e-18
vn -0.71630194 0.0000000e+0 -0.69779046
vn -0.92880955 0.0000000e+0 -0.37055744
vn 0.37055744 0.0000000e+0 -0.92880955
vn -1.3089596e-2 0.0000000e+0 -0.99991433
vn -9.2557418e-3 -0.70710678 -0.70704620
vn 0.99991433 0.0000000e+0 -1.3089596e-2
vn -0.39474386 0.0000000e+0 -0.91879121
vn -1.3089596e-2 0.0000000e+0 -0.99991433
vn -9.2557418e-3 -0.70710678 -0.70704620
vn -0.99991433 0.0000000e+0 1.3089596e-2
vn 0.37055744 0.0000000e+0 -0.92880955
vn -1.3089596e-2 0.0000000e+0 -0.99991433
vn 9.2557418e-3 0.70710678 0.70704620
vn 0.99991433 0.0000000e+0 -1.3089596e-2
vn -0.39474386 0.0000000e+0 -0.91879121
vn -1.3089596e-2 0.0000000e+0 -0.99991433
vn -0.99991433 0.0000000e+0 1.3089596e-2
vn 9.2557418e-3 0.70710678 0.70704620
vn -0.37055744 0.0000000e+0 0.92880955
vn 1.3089596e-2 0.0000000e+0 0.99991433
vn -0.99991433 0.0000000e+0 1.3089596e-2
vn 9.2557418e-3 -0.70710678 0.70704620
vn 0.39474386 0.0000000e+0 0.91879121
vn 1.3089596e-2 0.0000000e+0 0.99991433
vn 9.2557418e-3 -0.70710678 0.70704620
vn 0.99991433 0.0000000e+0 -1.3089596e-2
vn -0.37055744 0.0000000e+0 0.92880955
vn 1.3089596e-2 0.0000000e+0 0.99991433
vn -9.2557418e-3 0.70710678 -0.70704620
vn -0.99991433 0.0000000e+0 1.3089596e-2
vn 0.39474386 0.0000000e+0 0.91879121
vn 1.3089596e-2 0.0000000e+0 0.99991433
vn -9.2557418e-3 0.70710678 -0.70704620
vn 0.99991433 0.0000000e+0 -1.3089596e-2
vn -9.2557418e-3 0.70710678 -0.70704620
vn 0.99991433 0.0000000e+0 -1.3089596e-2
vn 0.0000000e+0 1.00000000 0.0000000e+0
vn 0.99991433 0.0000000e+0 -1.3089596e-2
vn -9.2557418e-3 0.70710678 -0.70704620
vn -0.99991433 0.0000000e+0 1.3089596e-2
vn 0.0000000e+0 1.00000000 0.0000000e+0
vn -0.99991433 0.0000000e+0 1.3089596e-2
vn -0.99991433 0.0000000e+0 1.3089596e-2
vn 9.2557418e-3 -0.70710678 0.70704620
vn -0.99991433 0.0000000e+0 1.3089596e-2
vn 0.0000000e+0 -1.00000000 0.0000000e+0
vn 9.2557418e-3 -0.70710678 0.70704620
vn 0.99991433 0.0000000e+0 -1.3089596e-2
vn 0.0000000e+0 -1.00000000 0.0000000e+0
vn 0.99991433 0.0000000e+0 -1.3089596e-2
vn -9.2557418e-3 -0.70710678 -0.70704620
vn 0.99991433 0.0000000e+0 -1.3089596e-2
vn 0.0000000e+0 -1.00000000 0.0000000e+0
vn 0.99991433 0.0000000e+0 -1.3089596e-2
vn -9.2557418e-3 -0.70710678 -0.70704620
vn -0.99991433 0.0000000e+0 1.3089596e-2
vn 0.0000000e+0 -1.00000000 0.0000000e+0
vn -0.99991433 0.0000000e+0 1.3089596e-2
vn -0.99991433 0.0000000e+0 1.3089596e-2
vn 9.2557418e-3 0.70710678 0.70704620
vn -0.99991433 0.0000000e+0 1.3089596e-2
vn 0.0000000e+0 1.00000000 0.0000000e+0
vn 9.2557418e-3 0.70710678 0.70704620
vn 0.99991433 0.0000000e+0 -1.3089596e-2
vn 0.0000000e+0 1.00000000 0.0000000e+0
vn 0.99991433 0.0000000e+0 -1.3089596e-2
vn 1.3089596e-2 0.0000000e+0 0.99991433
vn 0.0000000e+0 1.00000000 0.0000000e+0
vn 0.99991433 0.0000000e+0 -1.3089596e-2
vn 1.3089596e-2 0.0000000e+0 0.99991433
vn 0.0000000e+0 1.00000000 0.0000000e+0
vn -0.99991433 0.0000000e+0 1.3089596e-2
vn 1.3089596e-2 0.0000000e+0 0.99991433
vn -0.99991433 0.0000000e+0 1.3089596e-2
vn 0.0000000e+0 -1.00000000 0.0000000e+0
vn 1.3089596e-2 0.0000000e+0 0.99991433
vn 0.0000000e+0 -1.00000000 0.0000000e+0
vn 0.99991433 0.0000000e+0 -1.3089596e-2
vn -1.3089596e-2 0.0000000e+0 -0.99991433
vn 0.0000000e+0 -1.00000000 0.0000000e+0
vn 0.99991433 0.0000000e+0 -1.3089596e-2
vn -1.3089596e-2 0.0000000e+0 -0.99991433
vn 0.0000000e+0 -1.00000000 0.0000000e+0
vn -0.99991433 0.0000000e+0 1.3089596e-2
vn -1.3089596e-2 0.0000000e+0 -0.99991433
vn -0.99991433 0.0000000e+0 1.3089596e-2
vn 0.0000000e+0 1.00000000 0.0000000e+0
vn -1.3089596e-2 0.0000000e+0 -0.99991433
vn 0.0000000e+0 1.00000000 0.0000000e+0
vn 0.99991433 0.0000000e+0 -1.3089596e-2
g Pan_Black
usemtl Black
s 1
f 73/194/260 81/183/291 84/182/300 76/195/272
f 86/19/304 87/21/307 88/5/310 85/4/301
s 2
f 74/142/263 82/145/293 81/161/290 73/156/259
f 76/107/271 84/105/299 83/119/297 75/120/268
f 77/184/276 85/196/303 88/197/312 80/185/288
f 79/173/283 87/160/308 86/159/306 78/174/280
s 3
f 75/115/267 83/128/296 82/129/294 74/116/264
f 78/176/279 86/177/305 85/164/302 77/163/275
f 80/157/287 88/154/311 87/134/309 79/143/284
s 4
f 82/21/292 83/20/295 84/34/298 81/35/289
g Pan_Metal
usemtl Metal
s 1
f 1/109/1 17/110/66 32/125/111 16/124/61
f 1/70/3 34/66/117 33/67/113 2/72/7
f 3/85/10 19/86/73 18/95/69 2/94/5
f 4/54/15 47/51/169 46/43/166 5/48/19
f 6/37/22 45/39/161 44/27/158 7/25/28
f 6/98/24 71/96/250 72/113/254 5/111/20
f 8/74/30 24/78/88 23/88/84 7/87/25
f 8/14/31 43/16/153 42/10/150 9/8/36
f 10/83/38 26/82/94 25/92/90 9/93/33
f 10/2/39 41/9/145 40/15/142 11/12/44
f 12/59/46 28/57/100 27/68/96 11/69/41
f 13/28/50 38/36/133 37/40/130 14/41/55
f 15/17/58 31/18/109 30/31/105 65/33/225 67/32/233 14/30/53
f 15/52/59 36/50/125 35/60/122 16/62/64
f 21/114/79 70/112/246 69/97/242 22/99/82
f 35/136/123 51/139/184 50/151/182 34/152/120
f 37/171/131 53/172/190 52/192/188 36/193/128
f 39/132/139 55/141/196 54/153/194 38/150/136
f 42/146/151 58/148/205 57/168/203 41/165/148
f 44/189/159 60/186/211 59/202/209 43/203/156
f 46/149/167 62/147/217 61/166/215 45/167/164
f 48/191/175 64/190/223 63/204/221 47/207/172
f 68/181/239 79/173/281 78/174/278 66/180/232
f 69/103/243 75/115/265 74/116/262 71/106/252
s 2
f 2/94/6 18/95/70 17/110/67 1/109/2
f 2/72/8 33/67/114 48/61/174 3/64/12
f 5/48/18 46/43/165 45/39/162 6/37/23
f 5/111/17 72/113/253 70/112/245 21/114/78 20/123/75 4/122/13
f 7/87/26 23/88/85 22/99/81 69/97/241 71/96/249 6/98/21
f 7/25/27 44/27/157 43/16/154 8/14/32
f 9/93/34 25/92/91 24/102/87 8/104/29
f 9/8/35 42/10/149 41/9/146 10/2/40
f 11/69/42 27/68/97 26/82/93 10/83/37
f 11/12/43 40/15/141 39/26/138 12/22/48
f 13/47/49 68/46/237 66/45/229 29/44/102 28/56/99 12/58/45
f 14/41/54 37/40/129 36/50/126 15/52/60
f 16/3/62 32/6/112 31/18/108 15/17/57
f 16/62/63 35/60/121 34/66/118 1/70/4
f 50/130/180 51/126/183 52/117/186 53/100/189 54/90/192 55/84/195 56/80/198 57/76/201 58/79/204 59/81/207 60/89/210 61/91/213 62/101/216 63/118/219 64/127/222 49/131/177
f 66/175/231 78/176/277 77/163/273 65/162/227
f 67/158/235 80/157/285 79/143/282 68/144/240
s 3
f 3/64/11 48/61/173 47/51/170 4/54/16
f 12/22/47 39/26/137 38/36/134 13/28/51
f 14/30/56 67/32/234 68/46/238 13/47/52
f 29/44/103 66/45/230 65/33/226 30/31/106
f 33/170/116 49/169/179 64/190/224 48/191/176
f 36/193/127 52/192/187 51/205/185 35/206/124
f 38/150/135 54/153/193 53/172/191 37/171/132
f 41/165/147 57/168/202 56/187/200 40/188/144
f 43/133/155 59/138/208 58/148/206 42/146/152
f 45/167/163 61/166/214 60/186/212 44/189/160
f 47/140/171 63/137/220 62/147/218 46/149/168
f 65/178/228 77/184/274 80/185/286 67/179/236
f 70/108/247 76/107/269 75/120/266 69/121/244
f 71/135/251 74/142/261 73/156/257 72/155/255
s 4
f 18/1/68 19/11/71 20/23/74 21/29/77 22/42/80 23/53/83 24/63/86 25/71/89 26/75/92 27/65/95 28/55/98 29/49/101 30/38/104 31/24/107 32/13/110 17/7/65
f 34/152/119 50/151/181 49/169/178 33/170/115
f 40/188/143 56/187/199 55/200/197 39/201/140
f 72/199/256 73/194/258 76/195/270 70/198/248
s 5
f 4/73/14 20/77/76 19/86/72 3/85/9
