# Exported from Wings 3D 2.2.5
mtllib Pizza.mtl
o Pizza
#64 vertices, 50 faces
v 0.50000000 0.10000000 0.0000000e+0
v 0.46193977 0.10000000 0.19134172
v 0.35355339 0.10000000 0.35355339
v 0.19134172 0.10000000 0.46193977
v 8.0647648e-18 0.10000000 0.50000000
v -0.19134172 0.10000000 0.46193977
v -0.35355339 0.10000000 0.35355339
v -0.46193977 0.10000000 0.19134172
v -0.50000000 0.10000000 2.2204460e-16
v -0.46193977 0.10000000 -0.19134172
v -0.35355339 0.10000000 -0.35355339
v -0.19134172 0.10000000 -0.46193977
v -1.1439992e-16 0.10000000 -0.50000000
v 0.19134172 0.10000000 -0.46193977
v 0.35355339 0.10000000 -0.35355339
v 0.46193977 0.10000000 -0.19134172
v 0.50000000 1.2246468e-16 0.0000000e+0
v 0.46193977 1.2246468e-16 0.19134172
v 0.35355339 1.2246468e-16 0.35355339
v 0.19134172 1.2246468e-16 0.46193977
v 8.0647648e-18 1.2246468e-16 0.50000000
v -0.19134172 1.2246468e-16 0.46193977
v -0.35355339 1.2246468e-16 0.35355339
v -0.46193977 1.2246468e-16 0.19134172
v -0.50000000 1.2246468e-16 2.2204460e-16
v -0.46193977 1.2246468e-16 -0.19134172
v -0.35355339 1.2246468e-16 -0.35355339
v -0.19134172 1.2246468e-16 -0.46193977
v -1.1439992e-16 1.2246468e-16 -0.50000000
v 0.19134172 1.2246468e-16 -0.46193977
v 0.35355339 1.2246468e-16 -0.35355339
v 0.46193977 1.2246468e-16 -0.19134172
v 0.39264880 0.10000000 0.16264046
v 0.42500000 0.10000000 0.0000000e+0
v 0.39264880 0.10000000 -0.16264046
v 0.30052038 0.10000000 -0.30052038
v 0.16264046 0.10000000 -0.39264880
v -1.0272644e-16 0.10000000 -0.42500000
v -0.16264046 0.10000000 -0.39264880
v -0.30052038 0.10000000 -0.30052038
v -0.39264880 0.10000000 -0.16264046
v -0.42500000 0.10000000 2.2204460e-16
v -0.39264880 0.10000000 0.16264046
v -0.30052038 0.10000000 0.30052038
v -0.16264046 0.10000000 0.39264880
v 8.0647648e-18 0.10000000 0.42500000
v 0.16264046 0.10000000 0.39264880
v 0.30052038 0.10000000 0.30052038
v 0.39264880 4.0000000e-2 0.16264046
v 0.42500000 4.0000000e-2 0.0000000e+0
v 0.39264880 4.0000000e-2 -0.16264046
v 0.30052038 4.0000000e-2 -0.30052038
v 0.16264046 4.0000000e-2 -0.39264880
v -1.0272644e-16 4.0000000e-2 -0.42500000
v -0.16264046 4.0000000e-2 -0.39264880
v -0.30052038 4.0000000e-2 -0.30052038
v -0.39264880 4.0000000e-2 -0.16264046
v -0.42500000 4.0000000e-2 2.2204460e-16
v -0.39264880 4.0000000e-2 0.16264046
v -0.30052038 4.0000000e-2 0.30052038
v -0.16264046 4.0000000e-2 0.39264880
v 8.0647648e-18 4.0000000e-2 0.42500000
v 0.16264046 4.0000000e-2 0.39264880
v 0.30052038 4.0000000e-2 0.30052038
vt 8.8625003e-3 0.50250000
vt 1.6163612e-2 0.97228240
vt 1.6163612e-2 0.98128240
vt 1.6163612e-2 0.94228240
vt 1.6163612e-2 0.95128240
vt 2.5000000e-2 0.95000000
vt 2.5000000e-2 0.95000000
vt 2.6903012e-2 0.94043291
vt 2.6903012e-2 0.95956709
vt 2.6903012e-2 0.94043291
vt 2.6903012e-2 0.95956709
vt 2.8750000e-2 0.95000000
vt 3.0367560e-2 0.94186798
vt 3.0367560e-2 0.95813202
vt 3.2322330e-2 0.93232233
vt 3.2322330e-2 0.96767767
vt 3.2322331e-2 0.93232233
vt 3.2322331e-2 0.96767767
vt 3.4973981e-2 0.96502602
vt 3.4973981e-2 0.93497398
vt 4.0432914e-2 0.97309699
vt 4.0432914e-2 0.92690301
vt 4.0432914e-2 0.92690301
vt 4.0432914e-2 0.97309699
vt 4.1037628e-2 0.98128240
vt 4.1037628e-2 0.97228240
vt 4.1037628e-2 0.94228240
vt 4.1037628e-2 0.95128240
vt 4.1867977e-2 0.93036756
vt 4.1867977e-2 0.96963244
vt 4.6438418e-2 0.31359311
vt 4.6438418e-2 0.69140689
vt 5.0000000e-2 0.92500000
vt 5.0000000e-2 0.97500000
vt 5.0000000e-2 0.92500000
vt 5.0000000e-2 0.92875000
vt 5.0000000e-2 0.97125000
vt 5.0000000e-2 0.97500000
vt 5.7734304e-2 0.95918586
vt 5.7734304e-2 0.97418586
vt 5.8132023e-2 0.93036756
vt 5.8132023e-2 0.96963244
vt 5.9567086e-2 0.92690301
vt 5.9567086e-2 0.97309699
vt 5.9567086e-2 0.92690301
vt 5.9567086e-2 0.97309699
vt 6.0560869e-2 0.94627454
vt 6.0560869e-2 0.95527454
vt 6.5026019e-2 0.96502602
vt 6.5026019e-2 0.93497398
vt 6.5911644e-2 0.97228240
vt 6.5911644e-2 0.98128240
vt 6.5911644e-2 0.94228240
vt 6.5911644e-2 0.95128240
vt 6.6737246e-2 0.94784581
vt 6.6737246e-2 0.96284581
vt 6.7677669e-2 0.93232233
vt 6.7677669e-2 0.96767767
vt 6.7677670e-2 0.93232233
vt 6.7677670e-2 0.96767767
vt 6.8020558e-2 0.92453620
vt 6.8020558e-2 0.93353620
vt 6.9632440e-2 0.94186798
vt 6.9632440e-2 0.95813202
vt 7.1250000e-2 0.95000000
vt 7.3096988e-2 0.94043291
vt 7.3096988e-2 0.95956709
vt 7.3096988e-2 0.94043291
vt 7.3096988e-2 0.95956709
vt 7.5000000e-2 0.95000000
vt 7.5000000e-2 0.95000000
vt 8.0222335e-2 0.92511044
vt 8.0222335e-2 0.94011044
vt 8.1182649e-2 0.93344951
vt 8.1182649e-2 0.94844951
vt 8.5434885e-2 0.94627454
vt 8.5434885e-2 0.95527454
vt 8.6997852e-2 0.95918586
vt 8.6997852e-2 0.97418586
vt 9.0785660e-2 0.97228240
vt 9.0785660e-2 0.98128240
vt 9.0785660e-2 0.94228240
vt 9.0785660e-2 0.95128240
vt 9.2894574e-2 0.92453620
vt 9.2894574e-2 0.93353620
vt 9.6000794e-2 0.94784581
vt 9.6000794e-2 0.96284581
vt 0.10948588 0.92511044
vt 0.10948588 0.94011044
vt 0.11030890 0.94627454
vt 0.11030890 0.95527454
vt 0.11044620 0.93344951
vt 0.11044620 0.94844951
vt 0.11565968 0.97228240
vt 0.11565968 0.98128240
vt 0.11565968 0.94228240
vt 0.11565968 0.95128240
vt 0.11626140 0.95918586
vt 0.11626140 0.97418586
vt 0.11776859 0.92453620
vt 0.11776859 0.93353620
vt 0.12526434 0.94784581
vt 0.12526434 0.96284581
vt 0.13518292 0.94627454
vt 0.13518292 0.95527454
vt 0.13874943 0.92511044
vt 0.13874943 0.94011044
vt 0.13970975 0.93344951
vt 0.13970975 0.94844951
vt 0.14264261 0.92453620
vt 0.14264261 0.93353620
vt 0.14552495 0.95918586
vt 0.14552495 0.97418586
vt 0.15344558 0.15344558
vt 0.15344558 0.85155442
vt 0.15452789 0.94784581
vt 0.15452789 0.96284581
vt 0.16005693 0.94627454
vt 0.16005693 0.95527454
vt 0.16751662 0.93353620
vt 0.16751662 0.92453620
vt 0.16801298 0.92511044
vt 0.16801298 0.94011044
vt 0.16897329 0.93344951
vt 0.16897329 0.94844951
vt 0.17478850 0.95918586
vt 0.17478850 0.97418586
vt 0.18379144 0.94784581
vt 0.18379144 0.96284581
vt 0.19727653 0.92511044
vt 0.19727653 0.94011044
vt 0.19823684 0.93344951
vt 0.19823684 0.94844951
vt 0.31359311 4.6438417e-2
vt 0.31359311 0.95856158
vt 0.50250000 8.8625001e-3
vt 0.50250000 0.99613750
vt 0.69140689 4.6438417e-2
vt 0.69140689 0.95856158
vt 0.85155442 0.15344558
vt 0.85155442 0.85155442
vt 0.95856158 0.31359311
vt 0.95856158 0.69140689
vt 0.99613750 0.50250000
vn 0.98078528 0.0000000e+0 -0.19509032
vn 0.98078528 0.0000000e+0 0.19509032
vn 0.0000000e+0 1.00000000 0.0000000e+0
vn 0.0000000e+0 1.00000000 0.0000000e+0
vn 0.83146961 0.0000000e+0 0.55557023
vn 0.98078528 0.0000000e+0 0.19509032
vn 0.0000000e+0 1.00000000 0.0000000e+0
vn 0.0000000e+0 1.00000000 0.0000000e+0
vn 0.55557023 0.0000000e+0 0.83146961
vn 0.83146961 0.0000000e+0 0.55557023
vn 0.0000000e+0 1.00000000 0.0000000e+0
vn 0.0000000e+0 1.00000000 0.0000000e+0
vn 0.19509032 0.0000000e+0 0.98078528
vn 0.55557023 0.0000000e+0 0.83146961
vn 0.0000000e+0 1.00000000 0.0000000e+0
vn 0.0000000e+0 1.00000000 0.0000000e+0
vn -0.19509032 0.0000000e+0 0.98078528
vn 0.19509032 0.0000000e+0 0.98078528
vn 0.0000000e+0 1.00000000 0.0000000e+0
vn 0.0000000e+0 1.00000000 0.0000000e+0
vn -0.55557023 0.0000000e+0 0.83146961
vn -0.19509032 0.0000000e+0 0.98078528
vn 0.0000000e+0 1.00000000 0.0000000e+0
vn 0.0000000e+0 1.00000000 0.0000000e+0
vn -0.83146961 0.0000000e+0 0.55557023
vn -0.55557023 0.0000000e+0 0.83146961
vn 0.0000000e+0 1.00000000 0.0000000e+0
vn 0.0000000e+0 1.00000000 0.0000000e+0
vn -0.98078528 0.0000000e+0 0.19509032
vn -0.83146961 0.0000000e+0 0.55557023
vn 0.0000000e+0 1.00000000 0.0000000e+0
vn 0.0000000e+0 1.00000000 0.0000000e+0
vn -0.98078528 0.0000000e+0 -0.19509032
vn -0.98078528 0.0000000e+0 0.19509032
vn 0.0000000e+0 1.00000000 0.0000000e+0
vn 0.0000000e+0 1.00000000 0.0000000e+0
vn -0.83146961 0.0000000e+0 -0.55557023
vn -0.98078528 0.0000000e+0 -0.19509032
vn 0.0000000e+0 1.00000000 0.0000000e+0
vn 0.0000000e+0 1.00000000 0.0000000e+0
vn -0.55557023 0.0000000e+0 -0.83146961
vn -0.83146961 0.0000000e+0 -0.55557023
vn 0.0000000e+0 1.00000000 0.0000000e+0
vn 0.0000000e+0 1.00000000 0.0000000e+0
vn -0.19509032 0.0000000e+0 -0.98078528
vn -0.55557023 0.0000000e+0 -0.83146961
vn 0.0000000e+0 1.00000000 0.0000000e+0
vn 0.0000000e+0 1.00000000 0.0000000e+0
vn 0.19509032 0.0000000e+0 -0.98078528
vn -0.19509032 0.0000000e+0 -0.98078528
vn 0.0000000e+0 1.00000000 0.0000000e+0
vn 0.0000000e+0 1.00000000 0.0000000e+0
vn 0.55557023 0.0000000e+0 -0.83146961
vn 0.19509032 0.0000000e+0 -0.98078528
vn 0.0000000e+0 1.00000000 0.0000000e+0
vn 0.0000000e+0 1.00000000 0.0000000e+0
vn 0.83146961 0.0000000e+0 -0.55557023
vn 0.55557023 0.0000000e+0 -0.83146961
vn 0.0000000e+0 1.00000000 0.0000000e+0
vn 0.0000000e+0 1.00000000 0.0000000e+0
vn 0.98078528 0.0000000e+0 -0.19509032
vn 0.83146961 0.0000000e+0 -0.55557023
vn 0.0000000e+0 1.00000000 0.0000000e+0
vn 0.0000000e+0 1.00000000 0.0000000e+0
vn 0.0000000e+0 -1.00000000 2.6170027e-32
vn 0.98078528 0.0000000e+0 -0.19509032
vn 0.98078528 0.0000000e+0 0.19509032
vn 0.0000000e+0 -1.00000000 2.6170027e-32
vn 0.83146961 0.0000000e+0 0.55557023
vn 0.98078528 0.0000000e+0 0.19509032
vn 0.0000000e+0 -1.00000000 2.6170027e-32
vn 0.55557023 0.0000000e+0 0.83146961
vn 0.83146961 0.0000000e+0 0.55557023
vn 0.0000000e+0 -1.00000000 2.6170027e-32
vn 0.19509032 0.0000000e+0 0.98078528
vn 0.55557023 0.0000000e+0 0.83146961
vn 0.0000000e+0 -1.00000000 2.6170027e-32
vn -0.19509032 0.0000000e+0 0.98078528
vn 0.19509032 0.0000000e+0 0.98078528
vn 0.0000000e+0 -1.00000000 2.6170027e-32
vn -0.55557023 0.0000000e+0 0.83146961
vn -0.19509032 0.0000000e+0 0.98078528
vn 0.0000000e+0 -1.00000000 2.6170027e-32
vn -0.83146961 0.0000000e+0 0.55557023
vn -0.55557023 0.0000000e+0 0.83146961
vn 0.0000000e+0 -1.00000000 2.6170027e-32
vn -0.98078528 0.0000000e+0 0.19509032
vn -0.83146961 0.0000000e+0 0.55557023
vn 0.0000000e+0 -1.00000000 2.6170027e-32
vn -0.98078528 0.0000000e+0 -0.19509032
vn -0.98078528 0.0000000e+0 0.19509032
vn 0.0000000e+0 -1.00000000 2.6170027e-32
vn -0.83146961 0.0000000e+0 -0.55557023
vn -0.98078528 0.0000000e+0 -0.19509032
vn 0.0000000e+0 -1.00000000 2.6170027e-32
vn -0.55557023 0.0000000e+0 -0.83146961
vn -0.83146961 0.0000000e+0 -0.55557023
vn 0.0000000e+0 -1.00000000 2.6170027e-32
vn -0.19509032 0.0000000e+0 -0.98078528
vn -0.55557023 0.0000000e+0 -0.83146961
vn 0.0000000e+0 -1.00000000 2.6170027e-32
vn 0.19509032 0.0000000e+0 -0.98078528
vn -0.19509032 0.0000000e+0 -0.98078528
vn 0.0000000e+0 -1.00000000 2.6170027e-32
vn 0.55557023 0.0000000e+0 -0.83146961
vn 0.19509032 0.0000000e+0 -0.98078528
vn 0.0000000e+0 -1.00000000 2.6170027e-32
vn 0.83146961 0.0000000e+0 -0.55557023
vn 0.55557023 0.0000000e+0 -0.83146961
vn 0.0000000e+0 -1.00000000 2.6170027e-32
vn 0.98078528 0.0000000e+0 -0.19509032
vn 0.83146961 0.0000000e+0 -0.55557023
vn 0.0000000e+0 1.00000000 0.0000000e+0
vn 0.0000000e+0 1.00000000 0.0000000e+0
vn -0.98078528 0.0000000e+0 -0.19509032
vn -0.83146961 0.0000000e+0 -0.55557023
vn 0.0000000e+0 1.00000000 0.0000000e+0
vn 0.0000000e+0 1.00000000 0.0000000e+0
vn -0.98078528 0.0000000e+0 -0.19509032
vn -0.98078528 0.0000000e+0 0.19509032
vn 0.0000000e+0 1.00000000 0.0000000e+0
vn 0.0000000e+0 1.00000000 0.0000000e+0
vn -0.98078528 0.0000000e+0 0.19509032
vn -0.83146961 0.0000000e+0 0.55557023
vn 0.0000000e+0 1.00000000 0.0000000e+0
vn 0.0000000e+0 1.00000000 0.0000000e+0
vn -0.83146961 0.0000000e+0 0.55557023
vn -0.55557023 0.0000000e+0 0.83146961
vn 0.0000000e+0 1.00000000 0.0000000e+0
vn 0.0000000e+0 1.00000000 0.0000000e+0
vn -0.55557023 0.0000000e+0 0.83146961
vn -0.19509032 0.0000000e+0 0.98078528
vn 0.0000000e+0 1.00000000 0.0000000e+0
vn 0.0000000e+0 1.00000000 0.0000000e+0
vn -0.19509032 0.0000000e+0 0.98078528
vn 0.19509032 0.0000000e+0 0.98078528
vn 0.0000000e+0 1.00000000 0.0000000e+0
vn 0.0000000e+0 1.00000000 0.0000000e+0
vn 0.19509032 0.0000000e+0 0.98078528
vn 0.55557023 0.0000000e+0 0.83146961
vn 0.0000000e+0 1.00000000 0.0000000e+0
vn 0.0000000e+0 1.00000000 0.0000000e+0
vn 0.55557023 0.0000000e+0 0.83146961
vn 0.83146961 0.0000000e+0 0.55557023
vn 0.0000000e+0 1.00000000 0.0000000e+0
vn 0.0000000e+0 1.00000000 0.0000000e+0
vn 0.83146961 0.0000000e+0 0.55557023
vn 0.98078528 0.0000000e+0 0.19509032
vn 0.0000000e+0 1.00000000 0.0000000e+0
vn 0.0000000e+0 1.00000000 0.0000000e+0
vn 0.98078528 0.0000000e+0 0.19509032
vn 0.98078528 0.0000000e+0 -0.19509032
vn 0.0000000e+0 1.00000000 0.0000000e+0
vn 0.0000000e+0 1.00000000 0.0000000e+0
vn 0.98078528 0.0000000e+0 -0.19509032
vn 0.83146961 0.0000000e+0 -0.55557023
vn 0.0000000e+0 1.00000000 0.0000000e+0
vn 0.0000000e+0 1.00000000 0.0000000e+0
vn 0.83146961 0.0000000e+0 -0.55557023
vn 0.55557023 0.0000000e+0 -0.83146961
vn 0.0000000e+0 1.00000000 0.0000000e+0
vn 0.0000000e+0 1.00000000 0.0000000e+0
vn 0.55557023 0.0000000e+0 -0.83146961
vn 0.19509032 0.0000000e+0 -0.98078528
vn 0.0000000e+0 1.00000000 0.0000000e+0
vn 0.0000000e+0 1.00000000 0.0000000e+0
vn 0.19509032 0.0000000e+0 -0.98078528
vn -0.19509032 0.0000000e+0 -0.98078528
vn 0.0000000e+0 1.00000000 0.0000000e+0
vn 0.0000000e+0 1.00000000 0.0000000e+0
vn -0.19509032 0.0000000e+0 -0.98078528
vn -0.55557023 0.0000000e+0 -0.83146961
vn 0.0000000e+0 1.00000000 0.0000000e+0
vn 0.0000000e+0 1.00000000 0.0000000e+0
vn -0.55557023 0.0000000e+0 -0.83146961
vn -0.83146961 0.0000000e+0 -0.55557023
vn 0.0000000e+0 1.00000000 -1.8038092e-17
vn -0.98078528 0.0000000e+0 -0.19509032
vn -0.83146961 0.0000000e+0 -0.55557023
vn 0.0000000e+0 1.00000000 -1.8038092e-17
vn -0.98078528 0.0000000e+0 -0.19509032
vn -0.98078528 0.0000000e+0 0.19509032
vn 0.0000000e+0 1.00000000 -1.8038092e-17
vn -0.98078528 0.0000000e+0 0.19509032
vn -0.83146961 0.0000000e+0 0.55557023
vn 0.0000000e+0 1.00000000 -1.8038092e-17
vn -0.83146961 0.0000000e+0 0.55557023
vn -0.55557023 0.0000000e+0 0.83146961
vn 0.0000000e+0 1.00000000 -1.8038092e-17
vn -0.55557023 0.0000000e+0 0.83146961
vn -0.19509032 0.0000000e+0 0.98078528
vn 0.0000000e+0 1.00000000 -1.8038092e-17
vn -0.19509032 0.0000000e+0 0.98078528
vn 0.19509032 0.0000000e+0 0.98078528
vn 0.0000000e+0 1.00000000 -1.8038092e-17
vn 0.19509032 0.0000000e+0 0.98078528
vn 0.55557023 0.0000000e+0 0.83146961
vn 0.0000000e+0 1.00000000 -1.8038092e-17
vn 0.55557023 0.0000000e+0 0.83146961
vn 0.83146961 0.0000000e+0 0.55557023
vn 0.0000000e+0 1.00000000 -1.8038092e-17
vn 0.83146961 0.0000000e+0 0.55557023
vn 0.98078528 0.0000000e+0 0.19509032
vn 0.0000000e+0 1.00000000 -1.8038092e-17
vn 0.98078528 0.0000000e+0 0.19509032
vn 0.98078528 0.0000000e+0 -0.19509032
vn 0.0000000e+0 1.00000000 -1.8038092e-17
vn 0.98078528 0.0000000e+0 -0.19509032
vn 0.83146961 0.0000000e+0 -0.55557023
vn 0.0000000e+0 1.00000000 -1.8038092e-17
vn 0.83146961 0.0000000e+0 -0.55557023
vn 0.55557023 0.0000000e+0 -0.83146961
vn 0.0000000e+0 1.00000000 -1.8038092e-17
vn 0.55557023 0.0000000e+0 -0.83146961
vn 0.19509032 0.0000000e+0 -0.98078528
vn 0.0000000e+0 1.00000000 -1.8038092e-17
vn 0.19509032 0.0000000e+0 -0.98078528
vn -0.19509032 0.0000000e+0 -0.98078528
vn 0.0000000e+0 1.00000000 -1.8038092e-17
vn -0.19509032 0.0000000e+0 -0.98078528
vn -0.55557023 0.0000000e+0 -0.83146961
vn 0.0000000e+0 1.00000000 -1.8038092e-17
vn -0.55557023 0.0000000e+0 -0.83146961
vn -0.83146961 0.0000000e+0 -0.55557023
g Pizza_Pizza_auv
usemtl Pizza_auv
s 1
f 1/99/1 17/98/66 32/112/111 16/113/61
f 1/71/3 34/65/117 33/63/113 2/68/7
f 3/40/10 19/39/73 18/78/69 2/79/5
f 5/103/18 21/102/79 20/116/75 4/117/13
f 5/35/19 46/36/165 45/29/162 6/23/24
f 7/56/26 23/55/85 22/86/81 6/87/21
f 8/10/31 43/13/153 42/12/150 9/7/36
f 10/89/38 26/88/94 25/106/90 9/107/33
f 10/11/39 41/14/145 40/19/142 11/18/44
f 12/125/46 28/124/100 27/132/96 11/133/41
f 14/93/54 30/92/106 29/108/102 13/109/49
f 15/60/59 36/49/125 35/64/122 16/69/64
f 35/85/123 51/84/184 50/100/182 34/101/120
f 37/81/131 53/80/190 52/94/188 36/95/128
f 39/25/139 55/26/196 54/51/194 38/52/136
f 42/54/151 58/53/205 57/82/203 41/83/148
f 44/5/159 60/4/211 59/27/209 43/28/156
f 48/48/175 64/47/223 63/76/221 47/77/172
s 2
f 2/79/6 18/78/70 17/98/67 1/99/2
f 2/68/8 33/63/114 48/50/174 3/59/12
f 4/117/14 20/116/76 19/128/72 3/129/9
f 4/45/15 47/41/169 46/36/166 5/35/20
f 6/87/22 22/86/82 21/102/78 5/103/17
f 6/23/23 45/29/161 44/20/158 7/17/28
f 9/107/34 25/106/91 24/122/87 8/123/29
f 9/7/35 42/12/149 41/14/146 10/11/40
f 11/73/42 27/72/97 26/88/93 10/89/37
f 11/18/43 40/19/141 39/30/138 12/24/48
f 13/109/50 29/108/103 28/124/99 12/125/45
f 13/38/51 38/37/133 37/42/130 14/46/56
f 15/75/58 31/74/109 30/92/105 14/93/53
f 16/69/63 35/64/121 34/65/118 1/71/4
f 50/144/180 51/143/183 52/141/186 53/139/189 54/137/192 55/135/195 56/115/198 57/32/201 58/1/204 59/31/207 60/114/210 61/134/213 62/136/216 63/138/219 64/140/222 49/142/177
s 3
f 3/59/11 48/50/173 47/41/170 4/45/16
f 7/17/27 44/20/157 43/13/154 8/10/32
f 12/24/47 39/30/137 38/37/134 13/38/52
f 14/46/55 37/42/129 36/49/126 15/60/60
f 16/113/62 32/112/112 31/126/108 15/127/57
f 33/111/116 49/110/179 64/121/224 48/120/176
f 36/62/127 52/61/187 51/84/185 35/85/124
f 38/52/135 54/51/193 53/80/191 37/81/132
f 41/83/147 57/82/202 56/96/200 40/97/144
f 43/28/155 59/27/208 58/53/206 42/54/152
f 46/91/167 62/90/217 61/104/215 45/105/164
s 4
f 18/8/68 19/15/71 20/22/74 21/33/77 22/43/80 23/57/83 24/66/86 25/70/89 26/67/92 27/58/95 28/44/98 29/34/101 30/21/104 31/16/107 32/9/110 17/6/65
f 34/101/119 50/100/181 49/110/178 33/111/115
f 40/3/143 56/2/199 55/26/197 39/25/140
f 45/105/163 61/104/214 60/118/212 44/119/160
f 47/77/171 63/76/220 62/90/218 46/91/168
s 5
f 8/123/30 24/122/88 23/130/84 7/131/25
