# Exported from Wings 3D 2.2.5
mtllib Rope.mtl
o Rope
#8 vertices, 6 faces
v -2.5000000e-2 2.7755576e-17 -2.5000000e-2
v -2.5000000e-2 2.7755576e-17 2.5000000e-2
v -2.5000000e-2 0.50000000 -2.5000000e-2
v -2.5000000e-2 0.50000000 2.5000000e-2
v 2.5000000e-2 2.7755576e-17 -2.5000000e-2
v 2.5000000e-2 2.7755576e-17 2.5000000e-2
v 2.5000000e-2 0.50000000 -2.5000000e-2
v 2.5000000e-2 0.50000000 2.5000000e-2
vt 0.0000000e+0 1.1102230e-16
vt 3.3306691e-16 1.00000000
vt 1.0000000e-1 0.0000000e+0
vt 0.10000000 0.0000000e+0
vt 0.10000000 1.00000000
vt 0.10000000 1.00000000
vt 0.20000000 0.0000000e+0
vt 0.20000000 0.0000000e+0
vt 0.20000000 1.00000000
vt 0.20000000 1.00000000
vt 0.30000000 0.0000000e+0
vt 0.30000000 0.0000000e+0
vt 0.30000000 1.00000000
vt 0.30000000 1.00000000
vt 0.40000000 0.0000000e+0
vt 0.40000000 1.00000000
vt 0.40000000 0.0000000e+0
vt 0.40000000 0.10000000
vt 0.40000000 0.10000000
vt 0.40000000 0.20000000
vt 0.50000000 2.0816682e-17
vt 0.50000000 0.10000000
vt 0.50000000 0.10000000
vt 0.50000000 0.20000000
vn 0.0000000e+0 -1.00000000 0.0000000e+0
vn 0.0000000e+0 0.0000000e+0 -1.00000000
vn -1.00000000 0.0000000e+0 0.0000000e+0
vn 0.0000000e+0 -1.00000000 0.0000000e+0
vn 0.0000000e+0 0.0000000e+0 1.00000000
vn -1.00000000 0.0000000e+0 0.0000000e+0
vn 0.0000000e+0 1.00000000 0.0000000e+0
vn 0.0000000e+0 0.0000000e+0 -1.00000000
vn -1.00000000 0.0000000e+0 0.0000000e+0
vn 0.0000000e+0 1.00000000 0.0000000e+0
vn 0.0000000e+0 0.0000000e+0 1.00000000
vn -1.00000000 0.0000000e+0 0.0000000e+0
vn 0.0000000e+0 -1.00000000 0.0000000e+0
vn 0.0000000e+0 0.0000000e+0 -1.00000000
vn 1.00000000 0.0000000e+0 0.0000000e+0
vn 0.0000000e+0 -1.00000000 0.0000000e+0
vn 0.0000000e+0 0.0000000e+0 1.00000000
vn 1.00000000 0.0000000e+0 0.0000000e+0
vn 0.0000000e+0 1.00000000 0.0000000e+0
vn 0.0000000e+0 0.0000000e+0 -1.00000000
vn 1.00000000 0.0000000e+0 0.0000000e+0
vn 0.0000000e+0 1.00000000 0.0000000e+0
vn 0.0000000e+0 0.0000000e+0 1.00000000
vn 1.00000000 0.0000000e+0 0.0000000e+0
g Rope_White
usemtl White
s 1
f 2/7/6 4/9/12 3/6/9 1/4/3
f 5/15/15 7/16/21 8/14/24 6/12/18
s 2
f 2/8/5 6/11/17 8/13/23 4/10/11
f 3/5/8 7/2/20 5/1/14 1/3/2
s 3
f 1/24/1 5/20/13 6/19/16 2/22/4
f 4/17/10 8/21/22 7/23/19 3/18/7
