# Exported from Wings 3D 2.2.5
mtllib Table2.mtl
o Table2
#40 vertices, 35 faces
v 2.00000000 0.80000000 1.20000000
v 2.00000000 0.80000000 -2.3071822e-16
v 2.00000000 1.00000000 1.20000000
v 2.00000000 1.00000000 -2.3071822e-16
v 0.0000000e+0 0.80000000 1.20000000
v 0.0000000e+0 0.80000000 -8.6736174e-18
v 0.0000000e+0 1.00000000 1.20000000
v 0.0000000e+0 1.00000000 -8.6736174e-18
v 0.0000000e+0 0.80000000 0.20000000
v 2.00000000 0.80000000 0.20000000
v 1.83333333 0.80000000 1.20000000
v 0.16666667 0.80000000 1.20000000
v 1.83333333 0.80000000 -2.3071822e-16
v 0.16666667 0.80000000 -8.6736174e-18
v 1.83333333 0.80000000 0.20000000
v 0.16666667 0.80000000 0.20000000
v 0.16666667 -1.7145055e-17 -8.6736174e-18
v 0.16666667 -1.7145055e-17 0.20000000
v 0.0000000e+0 -1.7145055e-17 0.20000000
v 0.0000000e+0 -1.7145055e-17 -8.6736174e-18
v 1.83333333 -1.7145055e-17 0.20000000
v 1.83333333 -1.7145055e-17 -2.3071822e-16
v 2.00000000 -1.7145055e-17 -2.3071822e-16
v 2.00000000 -1.7145055e-17 0.20000000
v 2.00000000 0.15000000 0.20000000
v 2.00000000 0.15000000 -2.3071822e-16
v 1.83333333 0.15000000 -2.3071822e-16
v 1.83333333 0.15000000 0.20000000
v 0.0000000e+0 0.15000000 -8.6736174e-18
v 0.0000000e+0 0.15000000 0.20000000
v 0.16666667 0.15000000 0.20000000
v 0.16666667 0.15000000 -8.6736174e-18
v 2.00000000 0.15000000 1.00000000
v 1.83333333 0.15000000 1.00000000
v 1.83333333 -1.7145055e-17 1.00000000
v 2.00000000 -1.7145055e-17 1.00000000
v 0.16666667 0.15000000 1.00000000
v 0.0000000e+0 0.15000000 1.00000000
v 0.0000000e+0 -1.7145055e-17 1.00000000
v 0.16666667 -1.7145055e-17 1.00000000
vt 0.0000000e+0 0.0000000e+0
vt 0.0000000e+0 0.33333333
vt 0.0000000e+0 0.85714286
vt 5.5511151e-17 0.23809524
vt 1.1102230e-16 0.61904762
vt 2.2204460e-16 0.28571429
vt 2.6867397e-14 0.61904762
vt 3.4583447e-14 0.80952381
vt 3.8552495e-14 0.65476190
vt 3.9682540e-2 0.0000000e+0
vt 3.9682540e-2 0.23809524
vt 3.9682540e-2 0.28571429
vt 3.9682540e-2 0.28571429
vt 3.9682540e-2 0.80952381
vt 3.9682540e-2 0.61904762
vt 3.9682540e-2 0.65476190
vt 0.43650794 0.61904762
vt 0.43650794 0.65476190
vt 0.43650794 0.80952381
vt 0.43650794 2.7755576e-17
vt 0.43650794 0.23809524
vt 0.43650794 0.28571429
vt 0.43650794 0.28571429
vt 0.47619048 0.61904762
vt 0.47619048 0.85714286
vt 0.47619048 0.80952381
vt 0.47619048 0.65476190
vt 0.47619048 0.33333333
vt 0.47619048 0.61904762
vt 0.47619048 0.23809524
vt 0.47619048 5.5511151e-17
vt 0.47619048 0.47619048
vt 0.47619048 3.5714286e-2
vt 0.47619048 0.28571429
vt 0.47619048 0.33333333
vt 0.47619048 0.47619048
vt 0.47619048 0.66666667
vt 0.47619048 0.82142857
vt 0.47619048 0.66666667
vt 0.47619048 0.51190476
vt 0.47619048 0.42857143
vt 0.47619048 0.19047619
vt 0.47619048 2.0160262e-13
vt 0.47619048 0.23809524
vt 0.51587302 0.66666667
vt 0.51587302 0.82142857
vt 0.51587302 0.66666667
vt 0.51587302 0.82142857
vt 0.52380952 0.27380952
vt 0.52380952 0.66666667
vt 0.52380952 0.23809524
vt 0.52380952 0.47619048
vt 0.52380952 0.51190476
vt 0.52380952 3.3190117e-13
vt 0.52380952 3.5714286e-2
vt 0.52380952 0.19047619
vt 0.55555556 0.82142857
vt 0.55555556 0.66666667
vt 0.71428571 0.23809524
vt 0.71428571 0.27380952
vt 0.71428571 0.47619048
vt 0.71428571 0.47619048
vt 0.71428571 0.51190476
vt 0.71428571 0.66666667
vt 0.71428571 0.71428571
vt 0.71428571 0.75000000
vt 0.71428571 0.78571429
vt 0.71428571 0.71428571
vt 0.71428571 0.75000000
vt 0.71428571 0.42857143
vt 0.71428571 0.0000000e+0
vt 0.71428571 3.5714286e-2
vt 0.75396825 0.47619048
vt 0.75396825 0.66666667
vt 0.75396825 0.71428571
vt 0.75396825 0.71428571
vt 0.75396825 0.75000000
vt 0.75396825 0.75000000
vt 0.75396825 0.78571429
vt 0.76190476 0.47619048
vt 0.76190476 0.23809524
vt 0.76190476 0.42857143
vt 0.76190476 0.27380952
vt 0.76190476 0.23809524
vt 0.76190476 0.0000000e+0
vt 0.76190476 3.5714286e-2
vt 0.76190476 0.19047619
vt 0.76190476 0.19047619
vt 0.76190476 0.38095238
vt 0.76190476 0.61904762
vt 0.76190476 0.61904762
vt 0.76190476 0.42857143
vt 0.76190476 0.80952381
vt 0.80158730 0.19047619
vt 0.80158730 0.42857143
vt 0.80158730 0.61904762
vt 0.80158730 0.61904762
vt 0.80158730 0.38095238
vt 0.80158730 0.42857143
vt 0.80158730 0.80952381
vt 0.95238095 0.19047619
vt 0.95238095 2.7755576e-17
vt 0.95238095 3.5714286e-2
vt 1.00000000 0.19047619
vt 1.00000000 3.5714286e-2
vt 1.00000000 1.1102230e-16
vn 0.0000000e+0 -1.00000000 0.0000000e+0
vn 6.9388939e-17 0.0000000e+0 1.00000000
vn 1.00000000 0.0000000e+0 -1.8503717e-16
vn -1.1102230e-16 6.1629758e-32 -1.00000000
vn 1.00000000 0.0000000e+0 -1.8503717e-16
vn 0.0000000e+0 0.0000000e+0 -1.00000000
vn 1.00000000 0.0000000e+0 -1.1102230e-15
vn 0.0000000e+0 1.00000000 0.0000000e+0
vn 6.9388939e-17 0.0000000e+0 1.00000000
vn 1.00000000 0.0000000e+0 -1.8503717e-16
vn 0.0000000e+0 1.00000000 0.0000000e+0
vn -1.1102230e-16 6.1629758e-32 -1.00000000
vn 1.00000000 0.0000000e+0 -1.8503717e-16
vn 6.9388939e-17 0.0000000e+0 1.00000000
vn -1.00000000 0.0000000e+0 0.0000000e+0
vn 0.0000000e+0 -1.00000000 0.0000000e+0
vn -1.1102230e-16 6.1629758e-32 -1.00000000
vn -1.00000000 0.0000000e+0 0.0000000e+0
vn -1.00000000 0.0000000e+0 0.0000000e+0
vn 0.0000000e+0 0.0000000e+0 -1.00000000
vn 0.0000000e+0 1.00000000 0.0000000e+0
vn 6.9388939e-17 0.0000000e+0 1.00000000
vn -1.00000000 0.0000000e+0 0.0000000e+0
vn 0.0000000e+0 1.00000000 0.0000000e+0
vn -1.1102230e-16 6.1629758e-32 -1.00000000
vn -1.00000000 0.0000000e+0 0.0000000e+0
vn -1.00000000 0.0000000e+0 0.0000000e+0
vn 0.0000000e+0 -1.00000000 0.0000000e+0
vn 0.0000000e+0 0.0000000e+0 1.00000000
vn -1.00000000 0.0000000e+0 0.0000000e+0
vn 0.0000000e+0 -1.00000000 0.0000000e+0
vn 1.00000000 0.0000000e+0 -1.8503717e-16
vn 1.00000000 0.0000000e+0 -1.1102230e-15
vn 0.0000000e+0 0.0000000e+0 1.00000000
vn 0.0000000e+0 -1.00000000 0.0000000e+0
vn 6.9388939e-17 0.0000000e+0 1.00000000
vn 0.0000000e+0 -1.00000000 0.0000000e+0
vn 6.9388939e-17 0.0000000e+0 1.00000000
vn 0.0000000e+0 -1.00000000 0.0000000e+0
vn 0.0000000e+0 -1.00000000 0.0000000e+0
vn -1.1102230e-16 6.1629758e-32 -1.00000000
vn 0.0000000e+0 -1.00000000 0.0000000e+0
vn -1.00000000 0.0000000e+0 1.1102230e-15
vn 0.0000000e+0 0.0000000e+0 -1.00000000
vn -1.1102230e-16 6.1629758e-32 -1.00000000
vn 0.0000000e+0 -1.00000000 0.0000000e+0
vn 1.00000000 0.0000000e+0 -5.5511151e-16
vn 0.0000000e+0 0.0000000e+0 -1.00000000
vn 0.0000000e+0 -1.00000000 0.0000000e+0
vn 0.0000000e+0 -1.00000000 0.0000000e+0
vn 0.0000000e+0 -1.00000000 0.0000000e+0
vn -1.00000000 0.0000000e+0 1.1102230e-15
vn 0.0000000e+0 0.0000000e+0 1.00000000
vn 0.0000000e+0 -1.00000000 0.0000000e+0
vn 0.0000000e+0 -1.00000000 0.0000000e+0
vn 0.0000000e+0 -1.00000000 0.0000000e+0
vn 1.00000000 0.0000000e+0 -5.5511151e-16
vn 0.0000000e+0 0.0000000e+0 1.00000000
vn 0.0000000e+0 -1.00000000 0.0000000e+0
vn 1.00000000 0.0000000e+0 -5.5511151e-16
vn 0.0000000e+0 0.0000000e+0 -1.00000000
vn 0.0000000e+0 -1.00000000 0.0000000e+0
vn 1.00000000 0.0000000e+0 -5.5511151e-16
vn 0.0000000e+0 -1.00000000 0.0000000e+0
vn 1.00000000 0.0000000e+0 0.0000000e+0
vn 0.0000000e+0 -1.00000000 0.0000000e+0
vn -1.00000000 0.0000000e+0 0.0000000e+0
vn -1.00000000 0.0000000e+0 0.0000000e+0
vn 0.0000000e+0 -1.00000000 0.0000000e+0
vn 0.0000000e+0 -1.00000000 0.0000000e+0
vn -1.00000000 0.0000000e+0 0.0000000e+0
vn 0.0000000e+0 0.0000000e+0 -1.00000000
vn 0.0000000e+0 -1.00000000 0.0000000e+0
vn -1.00000000 0.0000000e+0 1.1102230e-15
vn -1.00000000 0.0000000e+0 0.0000000e+0
vn 0.0000000e+0 -1.00000000 0.0000000e+0
vn 0.0000000e+0 -1.00000000 0.0000000e+0
vn -1.00000000 0.0000000e+0 1.1102230e-15
vn 0.0000000e+0 0.0000000e+0 -1.00000000
vn 0.0000000e+0 -1.00000000 0.0000000e+0
vn 0.0000000e+0 0.0000000e+0 -1.00000000
vn 1.00000000 0.0000000e+0 -1.1102230e-15
vn 0.0000000e+0 -1.00000000 0.0000000e+0
vn 1.00000000 0.0000000e+0 -1.1102230e-15
vn 0.0000000e+0 -1.00000000 0.0000000e+0
vn 1.00000000 0.0000000e+0 0.0000000e+0
vn 1.00000000 0.0000000e+0 -1.1102230e-15
vn 1.00000000 0.0000000e+0 -1.1102230e-15
vn 0.0000000e+0 0.0000000e+0 1.00000000
vn 0.0000000e+0 1.00000000 0.0000000e+0
vn 1.00000000 0.0000000e+0 0.0000000e+0
vn 0.0000000e+0 0.0000000e+0 -1.00000000
vn 1.00000000 0.0000000e+0 -1.1102230e-15
vn 0.0000000e+0 0.0000000e+0 -1.00000000
vn 1.00000000 0.0000000e+0 -1.1102230e-15
vn -1.00000000 0.0000000e+0 1.1102230e-15
vn 0.0000000e+0 0.0000000e+0 -1.00000000
vn -1.00000000 0.0000000e+0 1.1102230e-15
vn 0.0000000e+0 0.0000000e+0 -1.00000000
vn -1.00000000 0.0000000e+0 1.1102230e-15
vn -1.00000000 0.0000000e+0 1.1102230e-15
vn 0.0000000e+0 0.0000000e+0 1.00000000
vn 0.0000000e+0 1.00000000 0.0000000e+0
vn -1.00000000 0.0000000e+0 0.0000000e+0
vn -1.00000000 0.0000000e+0 0.0000000e+0
vn 0.0000000e+0 0.0000000e+0 -1.00000000
vn -1.00000000 0.0000000e+0 0.0000000e+0
vn 0.0000000e+0 0.0000000e+0 -1.00000000
vn -1.00000000 0.0000000e+0 0.0000000e+0
vn 0.0000000e+0 0.0000000e+0 1.00000000
vn -1.00000000 0.0000000e+0 0.0000000e+0
vn 0.0000000e+0 1.00000000 0.0000000e+0
vn -1.00000000 0.0000000e+0 0.0000000e+0
vn 1.00000000 0.0000000e+0 -5.5511151e-16
vn 1.00000000 0.0000000e+0 -5.5511151e-16
vn 0.0000000e+0 0.0000000e+0 1.00000000
vn 0.0000000e+0 1.00000000 0.0000000e+0
vn 1.00000000 0.0000000e+0 0.0000000e+0
vn 1.00000000 0.0000000e+0 -5.5511151e-16
vn 0.0000000e+0 0.0000000e+0 -1.00000000
vn 1.00000000 0.0000000e+0 -5.5511151e-16
vn 0.0000000e+0 0.0000000e+0 -1.00000000
vn 0.0000000e+0 0.0000000e+0 1.00000000
vn 0.0000000e+0 1.00000000 0.0000000e+0
vn 1.00000000 0.0000000e+0 0.0000000e+0
vn 0.0000000e+0 0.0000000e+0 1.00000000
vn 0.0000000e+0 1.00000000 0.0000000e+0
vn -1.00000000 0.0000000e+0 0.0000000e+0
vn 0.0000000e+0 0.0000000e+0 1.00000000
vn -1.00000000 0.0000000e+0 0.0000000e+0
vn 0.0000000e+0 -1.00000000 0.0000000e+0
vn 0.0000000e+0 0.0000000e+0 1.00000000
vn 0.0000000e+0 -1.00000000 0.0000000e+0
vn 1.00000000 0.0000000e+0 0.0000000e+0
vn 0.0000000e+0 0.0000000e+0 1.00000000
vn 0.0000000e+0 1.00000000 0.0000000e+0
vn 1.00000000 0.0000000e+0 0.0000000e+0
vn 0.0000000e+0 0.0000000e+0 1.00000000
vn 0.0000000e+0 1.00000000 0.0000000e+0
vn -1.00000000 0.0000000e+0 0.0000000e+0
vn 0.0000000e+0 0.0000000e+0 1.00000000
vn -1.00000000 0.0000000e+0 0.0000000e+0
vn 0.0000000e+0 -1.00000000 0.0000000e+0
vn 0.0000000e+0 0.0000000e+0 1.00000000
vn 0.0000000e+0 -1.00000000 0.0000000e+0
vn 1.00000000 0.0000000e+0 0.0000000e+0
g Table2_Metal
usemtl Metal
s 1
f 2/8/6 26/9/94 27/16/99 13/14/44
f 14/19/48 32/18/122 29/27/108 6/26/20
f 15/38/53 28/37/102 25/45/89 10/48/34
f 18/89/62 19/98/66 20/95/70 17/92/59
f 21/52/75 35/61/130 34/63/128 28/53/104
f 22/75/77 23/68/80 24/64/83 21/74/73
f 25/60/91 33/49/125 36/51/134 24/59/86
f 30/90/112 38/92/139 37/99/136 31/96/117
s 2
f 6/42/19 29/33/107 30/55/111 9/56/30
f 13/39/43 27/40/98 28/53/101 15/50/52
f 16/101/57 31/103/115 32/105/121 14/104/47
f 18/89/64 40/88/145 39/94/143 19/98/69
f 20/24/72 29/27/106 32/18/120 17/17/61
f 23/81/82 26/83/93 25/60/87 24/59/84
f 24/64/85 36/62/133 35/73/131 21/74/76
f 28/93/103 34/91/127 33/97/124 25/100/90
s 3
f 9/46/29 30/47/110 31/58/116 16/57/58
f 10/70/33 25/60/88 26/83/95 2/82/7
f 19/54/68 39/71/142 38/72/140 30/55/113
f 22/15/79 27/16/97 26/9/92 23/7/81
f 31/103/118 37/86/137 40/85/146 18/102/65
f 34/66/126 35/65/129 36/76/132 33/78/123
s 4
f 17/106/60 32/105/119 31/103/114 18/102/63
f 19/54/67 30/55/109 29/33/105 20/43/71
f 21/52/74 28/53/100 27/40/96 22/36/78
f 38/67/138 39/69/141 40/77/144 37/79/135
g Table2_Wood
usemtl Wood
s 1
f 5/87/15 7/84/23 8/44/26 6/42/18 9/56/27
f 10/70/32 2/82/5 4/80/13 3/32/10 1/41/3
f 13/12/42 15/11/51 16/21/56 14/22/46
s 2
f 2/8/4 13/14/41 14/19/45 6/26/17 8/25/25 4/3/12
f 3/35/9 7/2/22 5/6/14 12/13/38 11/23/36 1/34/2
s 3
f 4/29/11 8/5/24 7/2/21 3/28/8
f 12/20/39 16/21/54 15/11/50 11/10/37
s 4
f 1/1/1 11/10/35 15/11/49 10/4/31
f 9/30/28 16/21/55 12/20/40 5/31/16
