# Exported from Wings 3D 2.2.5
mtllib TabletScreen.mtl
o TabletScreen
#4 vertices, 2 faces
v -0.34314286 6.5714286e-2 -0.26600000
v -0.34314286 6.5714286e-2 0.26600000
v 0.32885714 6.5714286e-2 0.26600000
v 0.32885714 6.5714286e-2 -0.26600000
vt -2.0655000e-3 0.20648981
vt -2.0655000e-3 0.99951019
vt 7.4532749e-2 6.2955556e-2
vt 7.4532749e-2 0.11295556
vt 0.13769064 6.2955556e-2
vt 0.13769064 0.11295556
vt 0.99964445 0.20648981
vt 0.99964445 0.99951019
vn 0.0000000e+0 1.00000000 0.0000000e+0
vn 0.0000000e+0 -1.00000000 0.0000000e+0
vn 0.0000000e+0 1.00000000 0.0000000e+0
vn 0.0000000e+0 -1.00000000 0.0000000e+0
vn 0.0000000e+0 1.00000000 0.0000000e+0
vn 0.0000000e+0 -1.00000000 0.0000000e+0
vn 0.0000000e+0 1.00000000 0.0000000e+0
vn 0.0000000e+0 -1.00000000 0.0000000e+0
g TabletScreen_TabletScreen_auv
usemtl TabletScreen_auv
s 1
f 2/1/3 3/7/5 4/8/7 1/2/1
s 2
f 1/6/2 4/4/8 3/3/6 2/5/4
