# Exported from Wings 3D 2.2.5
mtllib Tablet.mtl
o Tablet
#18 vertices, 15 faces
v -0.35714286 -1.4285714e-2 -0.28000000
v -0.35714286 -1.4285714e-2 0.28000000
v -0.35714286 6.5714286e-2 -0.28000000
v -0.35714286 6.5714286e-2 0.28000000
v 0.44285714 -1.4285714e-2 -0.28000000
v 0.44285714 -1.4285714e-2 0.28000000
v 0.44285714 6.5714286e-2 -0.28000000
v 0.44285714 6.5714286e-2 0.28000000
v 0.34285714 6.5714286e-2 0.28000000
v 0.34285714 6.5714286e-2 -0.28000000
v -0.34314286 6.5714286e-2 -0.26600000
v -0.34314286 6.5714286e-2 0.26600000
v 0.32885714 6.5714286e-2 0.26600000
v 0.32885714 6.5714286e-2 -0.26600000
v -0.34314286 6.4714286e-2 -0.26600000
v -0.34314286 6.4714286e-2 0.26600000
v 0.32885714 6.4714286e-2 0.26600000
v 0.32885714 6.4714286e-2 -0.26600000
vt 0.0000000e+0 0.41176471
vt 0.0000000e+0 0.41176471
vt 0.0000000e+0 0.88235294
vt 0.0000000e+0 0.88235294
vt 5.5511151e-17 0.94117647
vt 2.7755576e-16 0.82352941
vt 3.3306691e-16 0.82352941
vt 2.7922109e-14 0.0000000e+0
vt 1.0294118e-2 0.40147059
vt 1.0294118e-2 1.0294118e-2
vt 7.3529412e-2 0.88235294
vt 0.50441176 0.40147059
vt 0.50441176 1.0294118e-2
vt 0.51470588 0.94117647
vt 0.51470588 0.41176471
vt 0.51470588 3.4222625e-14
vt 0.58823529 0.0000000e+0
vt 0.58823529 0.88235294
vt 0.58823529 0.88235294
vt 0.58823529 0.94117647
vt 0.58823529 0.41176471
vt 0.58823529 0.82352941
vt 0.58823529 0.82352941
vt 0.58823529 5.8823529e-2
vt 0.58823529 5.8823529e-2
vt 0.58823529 0.11764706
vt 0.58823529 0.41176471
vt 0.58823529 0.0000000e+0
vt 1.00000000 1.9081958e-16
vt 1.00000000 5.8823529e-2
vt 1.00000000 5.8823529e-2
vt 1.00000000 0.11764706
vn 0.0000000e+0 -1.00000000 0.0000000e+0
vn 0.0000000e+0 0.0000000e+0 -1.00000000
vn -1.00000000 0.0000000e+0 0.0000000e+0
vn 0.0000000e+0 -1.00000000 0.0000000e+0
vn 0.0000000e+0 0.0000000e+0 1.00000000
vn -1.00000000 0.0000000e+0 0.0000000e+0
vn 0.0000000e+0 0.0000000e+0 -1.00000000
vn -1.00000000 0.0000000e+0 0.0000000e+0
vn 0.0000000e+0 1.00000000 0.0000000e+0
vn 0.0000000e+0 1.00000000 0.0000000e+0
vn 0.0000000e+0 0.0000000e+0 1.00000000
vn -1.00000000 0.0000000e+0 0.0000000e+0
vn 0.0000000e+0 1.00000000 0.0000000e+0
vn 0.0000000e+0 1.00000000 0.0000000e+0
vn 0.0000000e+0 -1.00000000 0.0000000e+0
vn 0.0000000e+0 0.0000000e+0 -1.00000000
vn 1.00000000 0.0000000e+0 0.0000000e+0
vn 0.0000000e+0 -1.00000000 0.0000000e+0
vn 0.0000000e+0 0.0000000e+0 1.00000000
vn 1.00000000 0.0000000e+0 0.0000000e+0
vn 0.0000000e+0 0.0000000e+0 -1.00000000
vn 1.00000000 0.0000000e+0 0.0000000e+0
vn 0.0000000e+0 1.00000000 0.0000000e+0
vn 0.0000000e+0 0.0000000e+0 1.00000000
vn 1.00000000 0.0000000e+0 0.0000000e+0
vn 0.0000000e+0 1.00000000 0.0000000e+0
vn 0.0000000e+0 0.0000000e+0 1.00000000
vn 0.0000000e+0 1.00000000 0.0000000e+0
vn 0.0000000e+0 1.00000000 0.0000000e+0
vn 0.0000000e+0 1.00000000 0.0000000e+0
vn 0.0000000e+0 0.0000000e+0 -1.00000000
vn 0.0000000e+0 1.00000000 0.0000000e+0
vn 0.0000000e+0 1.00000000 0.0000000e+0
vn 0.0000000e+0 1.00000000 0.0000000e+0
vn 0.0000000e+0 1.00000000 0.0000000e+0
vn 0.0000000e+0 1.00000000 0.0000000e+0
vn 1.00000000 0.0000000e+0 0.0000000e+0
vn 0.0000000e+0 0.0000000e+0 1.00000000
vn 0.0000000e+0 1.00000000 0.0000000e+0
vn 0.0000000e+0 1.00000000 0.0000000e+0
vn 1.00000000 0.0000000e+0 0.0000000e+0
vn 0.0000000e+0 0.0000000e+0 -1.00000000
vn 0.0000000e+0 1.00000000 0.0000000e+0
vn 0.0000000e+0 1.00000000 0.0000000e+0
vn 0.0000000e+0 0.0000000e+0 -1.00000000
vn -1.00000000 0.0000000e+0 0.0000000e+0
vn 0.0000000e+0 1.00000000 0.0000000e+0
vn 0.0000000e+0 1.00000000 0.0000000e+0
vn -1.00000000 0.0000000e+0 0.0000000e+0
vn 0.0000000e+0 0.0000000e+0 1.00000000
vn 0.0000000e+0 1.00000000 0.0000000e+0
vn 1.00000000 0.0000000e+0 0.0000000e+0
vn 0.0000000e+0 0.0000000e+0 1.00000000
vn 0.0000000e+0 1.00000000 0.0000000e+0
vn 1.00000000 0.0000000e+0 0.0000000e+0
vn 0.0000000e+0 0.0000000e+0 -1.00000000
vn 0.0000000e+0 1.00000000 0.0000000e+0
vn 0.0000000e+0 0.0000000e+0 -1.00000000
vn -1.00000000 0.0000000e+0 0.0000000e+0
vn 0.0000000e+0 1.00000000 0.0000000e+0
vn -1.00000000 0.0000000e+0 0.0000000e+0
vn 0.0000000e+0 0.0000000e+0 1.00000000
g Tablet_Black
usemtl Black
s 1
f 2/31/6 4/32/12 3/26/8 1/25/3
f 3/1/10 11/9/36 14/12/48 10/15/34
f 7/27/23 10/15/32 9/16/28 8/17/26
f 9/16/29 13/13/43 12/10/40 4/8/14
s 2
f 2/4/5 6/18/19 8/20/24 9/14/27 4/5/11
f 3/19/7 10/11/31 7/3/21 5/7/16 1/22/2
f 4/8/13 12/10/39 11/9/35 3/1/9
f 10/15/33 14/12/47 13/13/44 9/16/30
s 3
f 5/29/17 7/30/22 8/24/25 6/28/20
s 4
f 1/23/1 5/6/15 6/2/18 2/21/4
g Tablet_White
usemtl White
s 1
f 16/10/54 17/13/57 18/12/60 15/9/51
s 2
f 11/9/38 15/9/53 18/12/62 14/9/50
f 13/13/45 17/13/58 16/10/56 12/13/42
s 3
f 12/10/41 16/10/55 15/9/52 11/10/37
f 14/12/49 18/12/61 17/13/59 13/12/46
