# Exported from Wings 3D 2.2.5
mtllib TreeTrunk.mtl
o TreeTrunk
#8 vertices, 6 faces
v -0.30000000 0.0000000e+0 -0.30000000
v -0.30000000 0.0000000e+0 0.30000000
v -0.21000000 1.80000000 -0.21000000
v -0.21000000 1.80000000 0.21000000
v 0.30000000 0.0000000e+0 -0.30000000
v 0.30000000 0.0000000e+0 0.30000000
v 0.21000000 1.80000000 -0.21000000
v 0.21000000 1.80000000 0.21000000
vt 0.0000000e+0 0.0000000e+0
vt 0.0000000e+0 0.75023401
vt 0.0000000e+0 1.00000000
vt 3.7464899e-2 0.75023401
vt 0.21230109 0.75023401
vt 0.24976599 0.75023401
vt 0.24976599 0.92507020
vt 0.24976599 1.00000000
vt 0.24976599 0.0000000e+0
vt 0.24976599 0.75023401
vt 0.28723089 0.75023401
vt 0.42460218 0.92507020
vt 0.42460218 0.75023401
vt 0.46206708 0.75023401
vt 0.49953198 0.0000000e+0
vt 0.49953198 -5.5511151e-17
vt 0.53699688 0.75023401
vt 0.71183307 0.75023401
vt 0.74929797 0.0000000e+0
vt 0.78676287 0.75023401
vt 0.96159906 0.75023401
vt 0.99906396 0.0000000e+0
vn 0.0000000e+0 -1.00000000 0.0000000e+0
vn 0.0000000e+0 4.9937617e-2 -0.99875234
vn -0.99875234 4.9937617e-2 0.0000000e+0
vn 0.0000000e+0 -1.00000000 0.0000000e+0
vn 0.0000000e+0 4.9937617e-2 0.99875234
vn -0.99875234 4.9937617e-2 0.0000000e+0
vn 0.0000000e+0 1.00000000 0.0000000e+0
vn 0.0000000e+0 4.9937617e-2 -0.99875234
vn -0.99875234 4.9937617e-2 0.0000000e+0
vn 0.0000000e+0 1.00000000 0.0000000e+0
vn 0.0000000e+0 4.9937617e-2 0.99875234
vn -0.99875234 4.9937617e-2 0.0000000e+0
vn 0.0000000e+0 -1.00000000 0.0000000e+0
vn 0.0000000e+0 4.9937617e-2 -0.99875234
vn 0.99875234 4.9937617e-2 0.0000000e+0
vn 0.0000000e+0 -1.00000000 0.0000000e+0
vn 0.0000000e+0 4.9937617e-2 0.99875234
vn 0.99875234 4.9937617e-2 0.0000000e+0
vn 0.0000000e+0 1.00000000 0.0000000e+0
vn 0.0000000e+0 4.9937617e-2 -0.99875234
vn 0.99875234 4.9937617e-2 0.0000000e+0
vn 0.0000000e+0 1.00000000 0.0000000e+0
vn 0.0000000e+0 4.9937617e-2 0.99875234
vn 0.99875234 4.9937617e-2 0.0000000e+0
g TreeTrunk_Wood
usemtl Wood
s 1
f 2/19/6 4/18/12 3/17/9 1/15/3
f 5/22/15 7/21/21 8/20/24 6/19/18
s 2
f 2/1/5 6/9/17 8/5/23 4/4/11
f 3/14/8 7/11/20 5/9/14 1/16/2
s 3
f 1/8/1 5/3/13 6/2/16 2/6/4
f 4/10/10 8/13/22 7/12/19 3/7/7
