# Exported from Wings 3D 2.2.5
mtllib WallPlus.mtl
o WallPlus
#16 vertices, 12 faces
v -3.00000000 -4.8985872e-16 -0.20000000
v -3.00000000 -4.8985872e-16 0.20000000
v -3.00000000 3.00000000 -0.20000000
v -3.00000000 3.00000000 0.20000000
v 3.00000000 -4.8985872e-16 -0.20000000
v 3.00000000 -4.8985872e-16 0.20000000
v 3.00000000 3.00000000 -0.20000000
v 3.00000000 3.00000000 0.20000000
v -0.20000000 -4.8985872e-16 3.00000000
v 0.20000000 -4.8985872e-16 3.00000000
v -0.20000000 3.00000000 3.00000000
v 0.20000000 3.00000000 3.00000000
v -0.20000000 -4.8985872e-16 -3.00000000
v 0.20000000 -4.8985872e-16 -3.00000000
v -0.20000000 3.00000000 -3.00000000
v 0.20000000 3.00000000 -3.00000000
vt 0.0000000e+0 0.0000000e+0
vt 0.0000000e+0 3.3333333e-2
vt 0.0000000e+0 3.3333333e-2
vt 0.0000000e+0 0.53333333
vt 0.0000000e+0 0.56666667
vt 0.0000000e+0 0.56666667
vt 3.8163916e-17 0.53333333
vt 2.7755576e-16 0.81666667
vt 3.3333333e-2 3.3333333e-2
vt 3.3333333e-2 0.53333333
vt 3.3333333e-2 0.53333333
vt 3.3333333e-2 3.3333333e-2
vt 6.6666667e-2 3.3333333e-2
vt 6.6666667e-2 0.28333333
vt 6.6666667e-2 0.53333333
vt 6.6666667e-2 0.53333333
vt 6.6666667e-2 3.3333333e-2
vt 6.6666667e-2 0.28333333
vt 1.0000000e-1 0.28333333
vt 1.0000000e-1 0.53333333
vt 0.10000000 3.3333333e-2
vt 0.10000000 0.28333333
vt 0.10000000 0.53333333
vt 0.10000000 0.28333333
vt 0.13333333 0.53333333
vt 0.13333333 0.28333333
vt 0.13333333 0.53333333
vt 0.13333333 0.28333333
vt 0.16666667 0.53333333
vt 0.16666667 0.28333333
vt 0.50000000 0.56666667
vt 0.50000000 0.81666667
vt 0.50000000 2.6367797e-16
vt 0.50000000 3.3333333e-2
vt 0.50000000 0.53333333
vt 0.50000000 0.56666667
vt 0.50000000 3.8163916e-17
vt 0.50000000 0.50000000
vt 0.50000000 0.75000000
vt 0.50000000 0.25000000
vt 0.50000000 0.50000000
vt 0.50000000 0.25000000
vt 1.00000000 0.0000000e+0
vt 1.00000000 0.25000000
vt 1.00000000 0.50000000
vt 1.00000000 0.50000000
vt 1.00000000 0.75000000
vt 1.00000000 0.25000000
vn 0.0000000e+0 -1.00000000 0.0000000e+0
vn 0.0000000e+0 0.0000000e+0 -1.00000000
vn -1.00000000 0.0000000e+0 0.0000000e+0
vn 0.0000000e+0 -1.00000000 0.0000000e+0
vn 0.0000000e+0 0.0000000e+0 1.00000000
vn -1.00000000 0.0000000e+0 0.0000000e+0
vn 0.0000000e+0 1.00000000 0.0000000e+0
vn 0.0000000e+0 0.0000000e+0 -1.00000000
vn -1.00000000 0.0000000e+0 0.0000000e+0
vn 0.0000000e+0 1.00000000 0.0000000e+0
vn 0.0000000e+0 0.0000000e+0 1.00000000
vn -1.00000000 0.0000000e+0 0.0000000e+0
vn 0.0000000e+0 -1.00000000 0.0000000e+0
vn 0.0000000e+0 0.0000000e+0 -1.00000000
vn 1.00000000 0.0000000e+0 0.0000000e+0
vn 0.0000000e+0 -1.00000000 0.0000000e+0
vn 0.0000000e+0 0.0000000e+0 1.00000000
vn 1.00000000 0.0000000e+0 0.0000000e+0
vn 0.0000000e+0 1.00000000 0.0000000e+0
vn 0.0000000e+0 0.0000000e+0 -1.00000000
vn 1.00000000 0.0000000e+0 0.0000000e+0
vn 0.0000000e+0 1.00000000 0.0000000e+0
vn 0.0000000e+0 0.0000000e+0 1.00000000
vn 1.00000000 0.0000000e+0 0.0000000e+0
vn 0.0000000e+0 -1.00000000 0.0000000e+0
vn -1.00000000 0.0000000e+0 0.0000000e+0
vn 0.0000000e+0 0.0000000e+0 1.00000000
vn 0.0000000e+0 -1.00000000 0.0000000e+0
vn 1.00000000 0.0000000e+0 0.0000000e+0
vn 0.0000000e+0 0.0000000e+0 1.00000000
vn 0.0000000e+0 1.00000000 0.0000000e+0
vn -1.00000000 0.0000000e+0 0.0000000e+0
vn 0.0000000e+0 0.0000000e+0 1.00000000
vn 0.0000000e+0 1.00000000 0.0000000e+0
vn 1.00000000 0.0000000e+0 0.0000000e+0
vn 0.0000000e+0 0.0000000e+0 1.00000000
vn 0.0000000e+0 -1.00000000 0.0000000e+0
vn -1.00000000 0.0000000e+0 0.0000000e+0
vn 0.0000000e+0 0.0000000e+0 -1.00000000
vn 0.0000000e+0 -1.00000000 0.0000000e+0
vn 1.00000000 0.0000000e+0 0.0000000e+0
vn 0.0000000e+0 0.0000000e+0 -1.00000000
vn 0.0000000e+0 1.00000000 0.0000000e+0
vn -1.00000000 0.0000000e+0 0.0000000e+0
vn 0.0000000e+0 0.0000000e+0 -1.00000000
vn 0.0000000e+0 1.00000000 0.0000000e+0
vn 1.00000000 0.0000000e+0 0.0000000e+0
vn 0.0000000e+0 0.0000000e+0 -1.00000000
g WallPlus_Wall
usemtl Wall
s 1
f 2/21/6 4/19/12 3/14/9 1/17/3
f 5/26/15 7/25/21 8/23/24 6/24/18
f 9/9/25 13/10/37 14/7/40 10/3/28
f 12/13/34 16/16/46 15/11/43 11/12/31
s 2
f 2/6/5 6/31/17 8/32/23 4/8/11
f 3/45/8 7/38/20 5/40/14 1/44/2
f 10/33/29 14/43/41 16/48/47 12/42/35
f 11/47/32 15/39/44 13/41/38 9/46/26
s 3
f 1/36/1 5/5/13 6/4/16 2/35/4
f 4/1/10 8/37/22 7/34/19 3/2/7
f 10/22/30 12/20/36 11/15/33 9/18/27
f 13/30/39 15/29/45 16/27/48 14/28/42
