# Exported from Wings 3D 2.2.5
mtllib WallWindowSmall.mtl
o WallWindowSmall
#16 vertices, 16 faces
v -3.00000000 1.7145055e-16 -0.20000000
v -3.00000000 1.7145055e-16 0.20000000
v -3.00000000 3.00000000 -0.20000000
v -3.00000000 3.00000000 0.20000000
v 3.00000000 1.7145055e-16 -0.20000000
v 3.00000000 1.7145055e-16 0.20000000
v 3.00000000 3.00000000 -0.20000000
v 3.00000000 3.00000000 0.20000000
v 1.20000000 0.75910553 -0.20000000
v -1.20000000 0.75910553 -0.20000000
v -1.20000000 2.22189950 -0.20000000
v 1.20000000 2.22189950 -0.20000000
v 1.20000000 2.22189950 0.20000000
v -1.20000000 2.22189950 0.20000000
v -1.20000000 0.75910553 0.20000000
v 1.20000000 0.75910553 0.20000000
vt 0.0000000e+0 0.41708621
vt 0.0000000e+0 0.83403256
vt 0.0000000e+0 0.83403256
vt 0.0000000e+0 0.88935504
vt 0.0000000e+0 0.94467752
vt 0.0000000e+0 0.94467752
vt 0.0000000e+0 1.00000000
vt 5.5511151e-17 0.88935504
vt 6.1280545e-4 0.42115138
vt 3.2468913e-3 0.0000000e+0
vt 0.24933622 0.72660834
vt 0.24954374 0.52495050
vt 0.24984823 0.30958853
vt 0.25106692 0.10649802
vt 0.33193488 1.00000000
vt 0.33193488 0.94467752
vt 0.33193488 1.00000000
vt 0.33193488 0.94467752
vt 0.58077949 0.52348138
vt 0.58196540 0.72644477
vt 0.58230086 0.10815388
vt 0.58247965 0.30968089
vt 0.66386975 1.00000000
vt 0.66386975 0.94467752
vt 0.82883248 0.41708621
vt 0.82983719 0.94467752
vt 0.82983719 0.88935504
vt 0.82983719 0.83403256
vt 0.82983719 0.88935504
vt 0.83091141 4.3465185e-3
vt 0.83145915 0.83403256
vt 0.83201372 0.41491860
vt 0.83201372 0.41491860
vt 0.83201372 0.41708621
vt 0.83201372 0.82983719
vt 0.83201372 0.0000000e+0
vt 0.88733620 0.41491860
vt 0.88733620 0.41491860
vt 0.88733620 0.82983719
vt 0.88733620 0.0000000e+0
vt 0.88733620 2.7755576e-17
vt 0.88733620 0.20231347
vt 0.88733620 0.20231347
vt 0.88733620 0.40462695
vt 0.94265868 0.0000000e+0
vt 0.94265868 0.20231347
vt 0.94265868 0.20231347
vt 0.94265868 0.40462695
vn 0.0000000e+0 -1.00000000 0.0000000e+0
vn -1.00000000 0.0000000e+0 0.0000000e+0
vn 0.0000000e+0 0.0000000e+0 -1.00000000
vn 0.0000000e+0 0.0000000e+0 -1.00000000
vn 0.0000000e+0 -1.00000000 0.0000000e+0
vn -1.00000000 0.0000000e+0 0.0000000e+0
vn 0.0000000e+0 0.0000000e+0 1.00000000
vn 0.0000000e+0 0.0000000e+0 1.00000000
vn 0.0000000e+0 1.00000000 0.0000000e+0
vn -1.00000000 0.0000000e+0 0.0000000e+0
vn 0.0000000e+0 0.0000000e+0 -1.00000000
vn 0.0000000e+0 0.0000000e+0 -1.00000000
vn 0.0000000e+0 1.00000000 0.0000000e+0
vn -1.00000000 0.0000000e+0 0.0000000e+0
vn 0.0000000e+0 0.0000000e+0 1.00000000
vn 0.0000000e+0 0.0000000e+0 1.00000000
vn 0.0000000e+0 -1.00000000 0.0000000e+0
vn 1.00000000 0.0000000e+0 0.0000000e+0
vn 0.0000000e+0 0.0000000e+0 -1.00000000
vn 0.0000000e+0 0.0000000e+0 -1.00000000
vn 0.0000000e+0 -1.00000000 0.0000000e+0
vn 1.00000000 0.0000000e+0 0.0000000e+0
vn 0.0000000e+0 0.0000000e+0 1.00000000
vn 0.0000000e+0 0.0000000e+0 1.00000000
vn 0.0000000e+0 1.00000000 0.0000000e+0
vn 1.00000000 0.0000000e+0 0.0000000e+0
vn 0.0000000e+0 0.0000000e+0 -1.00000000
vn 0.0000000e+0 0.0000000e+0 -1.00000000
vn 0.0000000e+0 1.00000000 0.0000000e+0
vn 1.00000000 0.0000000e+0 0.0000000e+0
vn 0.0000000e+0 0.0000000e+0 1.00000000
vn 0.0000000e+0 0.0000000e+0 1.00000000
vn 0.0000000e+0 0.0000000e+0 -1.00000000
vn 0.0000000e+0 0.0000000e+0 -1.00000000
vn 0.0000000e+0 1.00000000 0.0000000e+0
vn -1.00000000 0.0000000e+0 0.0000000e+0
vn 0.0000000e+0 0.0000000e+0 -1.00000000
vn 0.0000000e+0 1.00000000 0.0000000e+0
vn 1.00000000 0.0000000e+0 0.0000000e+0
vn 0.0000000e+0 0.0000000e+0 -1.00000000
vn 0.0000000e+0 -1.00000000 0.0000000e+0
vn 1.00000000 0.0000000e+0 0.0000000e+0
vn 0.0000000e+0 0.0000000e+0 -1.00000000
vn 0.0000000e+0 0.0000000e+0 -1.00000000
vn 0.0000000e+0 0.0000000e+0 -1.00000000
vn 0.0000000e+0 -1.00000000 0.0000000e+0
vn -1.00000000 0.0000000e+0 0.0000000e+0
vn 0.0000000e+0 0.0000000e+0 -1.00000000
vn 0.0000000e+0 -1.00000000 0.0000000e+0
vn -1.00000000 0.0000000e+0 0.0000000e+0
vn 0.0000000e+0 0.0000000e+0 1.00000000
vn 0.0000000e+0 0.0000000e+0 1.00000000
vn 0.0000000e+0 0.0000000e+0 1.00000000
vn 0.0000000e+0 -1.00000000 0.0000000e+0
vn 1.00000000 0.0000000e+0 0.0000000e+0
vn 0.0000000e+0 0.0000000e+0 1.00000000
vn 0.0000000e+0 0.0000000e+0 1.00000000
vn 0.0000000e+0 0.0000000e+0 1.00000000
vn 0.0000000e+0 1.00000000 0.0000000e+0
vn 1.00000000 0.0000000e+0 0.0000000e+0
vn 0.0000000e+0 0.0000000e+0 1.00000000
vn 0.0000000e+0 1.00000000 0.0000000e+0
vn -1.00000000 0.0000000e+0 0.0000000e+0
vn 0.0000000e+0 0.0000000e+0 1.00000000
g WallWindowSmall_Wall
usemtl Wall
s 1
f 3/31/11 11/20/43 10/19/40 1/25/4
f 4/4/13 8/27/29 7/26/25 3/5/9
f 5/9/20 9/12/34 12/11/45 7/2/27
f 6/30/23 16/21/61 15/14/57 2/10/7
f 11/23/41 12/17/46 13/16/49 14/24/54
s 2
f 1/25/3 10/19/37 9/12/33 5/9/19
f 2/38/6 4/39/14 3/35/10 1/33/2
f 4/1/16 14/13/56 13/22/52 8/34/32
f 5/40/18 7/37/26 8/32/30 6/36/22
f 7/2/28 12/11/48 11/20/44 3/31/12
f 10/45/39 11/46/42 14/42/55 15/41/60
f 16/47/63 13/48/50 12/44/47 9/43/36
s 3
f 1/29/1 5/8/17 6/3/21 2/28/5
f 2/10/8 15/14/58 14/13/53 4/1/15
f 8/34/31 13/22/51 16/21/64 6/30/24
f 15/6/59 16/18/62 9/15/35 10/7/38
