# Exported from Wings 3D 2.2.5
mtllib WallWindowBig.mtl
o WallWindowBig
#16 vertices, 14 faces
v -3.00000000 1.7145055e-16 -0.20000000
v -3.00000000 1.7145055e-16 0.20000000
v -3.00000000 3.00000000 -0.20000000
v -3.00000000 3.00000000 0.20000000
v 3.00000000 1.7145055e-16 -0.20000000
v 3.00000000 1.7145055e-16 0.20000000
v 3.00000000 3.00000000 -0.20000000
v 3.00000000 3.00000000 0.20000000
v 3.00000000 0.75910553 -0.20000000
v 3.00000000 2.22189950 -0.20000000
v 3.00000000 0.75910553 0.20000000
v 3.00000000 2.22189950 0.20000000
v 0.50000000 0.75910553 -0.20000000
v 0.50000000 2.22189950 -0.20000000
v 0.50000000 2.22189950 0.20000000
v 0.50000000 0.75910553 0.20000000
vt 0.0000000e+0 0.39473684
vt 0.0000000e+0 0.68709204
vt 0.0000000e+0 0.78947368
vt 0.0000000e+0 0.84210526
vt 0.0000000e+0 0.89473684
vt 0.0000000e+0 0.89473684
vt 0.0000000e+0 0.94736842
vt 0.0000000e+0 0.94736842
vt 0.0000000e+0 1.00000000
vt 5.5511151e-17 0.84210526
vt 2.2204460e-16 0.39473684
vt 3.3306691e-16 0.49461915
vt 3.3306691e-16 0.78947368
vt 7.7715612e-16 0.0000000e+0
vt 0.32894737 0.94736842
vt 0.32894737 0.94736842
vt 0.32894737 1.00000000
vt 0.32894737 0.89473684
vt 0.32894737 0.49461915
vt 0.32894737 0.68709204
vt 0.46052632 0.29235520
vt 0.46052632 9.9882307e-2
vt 0.78947368 0.29235520
vt 0.78947368 0.89473684
vt 0.78947368 1.2212453e-15
vt 0.78947368 0.39473684
vt 0.78947368 0.39473684
vt 0.78947368 0.84210526
vt 0.78947368 0.78947368
vt 0.78947368 0.84210526
vt 0.78947368 0.78947368
vt 0.78947368 0.0000000e+0
vt 0.78947368 9.9882307e-2
vt 0.78947368 0.39473684
vt 0.78947368 0.39473684
vt 0.78947368 0.49711849
vt 0.78947368 0.59700079
vt 0.84210526 0.0000000e+0
vt 0.84210526 0.39473684
vt 0.84210526 0.49711849
vt 0.84210526 0.49711849
vt 0.84210526 0.59700079
vt 0.84210526 2.7755576e-17
vt 0.84210526 0.19247289
vt 0.89473684 0.0000000e+0
vt 0.89473684 0.19247289
vn 0.0000000e+0 -1.00000000 0.0000000e+0
vn -1.00000000 0.0000000e+0 0.0000000e+0
vn 0.0000000e+0 0.0000000e+0 -1.00000000
vn 0.0000000e+0 0.0000000e+0 -1.00000000
vn 0.0000000e+0 -1.00000000 0.0000000e+0
vn -1.00000000 0.0000000e+0 0.0000000e+0
vn 0.0000000e+0 0.0000000e+0 1.00000000
vn 0.0000000e+0 0.0000000e+0 1.00000000
vn 0.0000000e+0 1.00000000 0.0000000e+0
vn -1.00000000 0.0000000e+0 0.0000000e+0
vn 0.0000000e+0 0.0000000e+0 -1.00000000
vn 0.0000000e+0 0.0000000e+0 -1.00000000
vn 0.0000000e+0 1.00000000 0.0000000e+0
vn -1.00000000 0.0000000e+0 0.0000000e+0
vn 0.0000000e+0 0.0000000e+0 1.00000000
vn 0.0000000e+0 0.0000000e+0 1.00000000
vn 0.0000000e+0 -1.00000000 0.0000000e+0
vn 1.00000000 0.0000000e+0 0.0000000e+0
vn 0.0000000e+0 0.0000000e+0 -1.00000000
vn 0.0000000e+0 -1.00000000 0.0000000e+0
vn 0.0000000e+0 0.0000000e+0 1.00000000
vn 1.00000000 0.0000000e+0 0.0000000e+0
vn 0.0000000e+0 1.00000000 0.0000000e+0
vn 0.0000000e+0 0.0000000e+0 -1.00000000
vn 1.00000000 0.0000000e+0 0.0000000e+0
vn 0.0000000e+0 1.00000000 0.0000000e+0
vn 1.00000000 0.0000000e+0 0.0000000e+0
vn 0.0000000e+0 0.0000000e+0 1.00000000
vn 1.00000000 0.0000000e+0 0.0000000e+0
vn 0.0000000e+0 1.00000000 0.0000000e+0
vn 0.0000000e+0 0.0000000e+0 -1.00000000
vn 0.0000000e+0 0.0000000e+0 -1.00000000
vn 1.00000000 0.0000000e+0 0.0000000e+0
vn 8.8817842e-17 -1.00000000 5.5511151e-16
vn 0.0000000e+0 0.0000000e+0 1.00000000
vn 1.00000000 0.0000000e+0 0.0000000e+0
vn 0.0000000e+0 1.00000000 0.0000000e+0
vn 1.00000000 0.0000000e+0 0.0000000e+0
vn 8.8817842e-17 -1.00000000 5.5511151e-16
vn 0.0000000e+0 0.0000000e+0 1.00000000
vn 0.0000000e+0 1.00000000 0.0000000e+0
vn 1.00000000 0.0000000e+0 0.0000000e+0
vn 0.0000000e+0 0.0000000e+0 -1.00000000
vn 0.0000000e+0 0.0000000e+0 -1.00000000
vn 0.0000000e+0 0.0000000e+0 -1.00000000
vn 8.8817842e-17 -1.00000000 5.5511151e-16
vn 1.00000000 0.0000000e+0 0.0000000e+0
vn 0.0000000e+0 0.0000000e+0 -1.00000000
vn 8.8817842e-17 -1.00000000 5.5511151e-16
vn 1.00000000 0.0000000e+0 0.0000000e+0
vn 0.0000000e+0 0.0000000e+0 1.00000000
vn 0.0000000e+0 0.0000000e+0 1.00000000
vn 0.0000000e+0 0.0000000e+0 1.00000000
vn 0.0000000e+0 1.00000000 0.0000000e+0
vn 1.00000000 0.0000000e+0 0.0000000e+0
vn 0.0000000e+0 0.0000000e+0 1.00000000
g WallWindowBig_Wall
usemtl Wall
s 1
f 1/27/4 13/19/44 9/12/31 5/11/19
f 2/38/6 4/39/14 3/34/10 1/32/2
f 6/25/21 11/33/35 16/22/53 2/14/7
f 8/36/27 12/35/38 10/39/33 7/40/25
f 13/45/42 14/46/47 15/44/50 16/43/55
s 2
f 2/14/8 16/22/56 15/21/51 4/1/15
f 3/31/12 14/20/48 13/19/43 1/27/3
f 4/4/13 8/28/26 7/24/23 3/5/9
f 5/41/18 9/42/29 11/37/36 6/36/22
f 14/16/46 10/7/34 12/6/39 15/18/49
s 3
f 1/30/1 5/10/17 6/3/20 2/29/5
f 4/1/16 15/21/52 12/23/40 8/26/28
f 7/13/24 10/2/32 14/20/45 3/31/11
f 16/8/54 11/15/37 9/17/30 13/9/41
