# Exported from Wings 3D 2.2.5
mtllib WallTVScreen.mtl
o WallTVScreen
#4 vertices, 2 faces
v 0.85800000 4.8333456e-2 -4.4263787e-2
v 0.85800000 1.31949184 0.29634208
v -0.85800000 1.31949184 0.29634208
v -0.85800000 4.8333456e-2 -4.4263787e-2
vt 7.1542553e-4 0.23487500
vt 7.1542553e-4 0.99912500
vt 9.2769681e-2 2.4525000e-2
vt 9.2769681e-2 7.5475000e-2
vt 0.15920600 2.4525000e-2
vt 0.15920600 7.5475000e-2
vt 0.99726026 0.23487500
vt 0.99726026 0.99912500
vn 1.2290713e-16 -0.25881905 0.96592583
vn -1.2290713e-16 0.25881905 -0.96592583
vn 1.2290713e-16 -0.25881905 0.96592583
vn -1.2290713e-16 0.25881905 -0.96592583
vn 1.2290713e-16 -0.25881905 0.96592583
vn -1.2290713e-16 0.25881905 -0.96592583
vn 1.2290713e-16 -0.25881905 0.96592583
vn -1.2290713e-16 0.25881905 -0.96592583
g WallTVScreen_WallTVScreen_auv
usemtl WallTVScreen_auv
s 1
f 2/8/3 3/2/5 4/1/7 1/7/1
s 2
f 1/3/2 4/5/8 3/6/6 2/4/4
