# Exported from Wings 3D 2.2.5
mtllib WallDoor.mtl
o WallDoor
#16 vertices, 14 faces
v -3.00000000 1.7145055e-16 -0.20000000
v -3.00000000 1.7145055e-16 0.20000000
v -3.00000000 3.00000000 -0.20000000
v -3.00000000 3.00000000 0.20000000
v 3.00000000 1.7145055e-16 -0.20000000
v 3.00000000 1.7145055e-16 0.20000000
v 3.00000000 3.00000000 -0.20000000
v 3.00000000 3.00000000 0.20000000
v -1.00000000 1.7145055e-16 -0.20000000
v 1.00000000 1.7145055e-16 -0.20000000
v -1.00000000 1.7145055e-16 0.20000000
v 1.00000000 1.7145055e-16 0.20000000
v -1.00000000 2.50000000 0.20000000
v 1.00000000 2.50000000 0.20000000
v 1.00000000 2.50000000 -0.20000000
v -1.00000000 2.50000000 -0.20000000
vt -3.3333333e-3 -1.5277778e-3
vt -3.3333333e-3 0.49847222
vt -3.2183177e-3 1.8630634e-3
vt -3.2183177e-3 0.50186306
vt 0.0000000e+0 0.83333333
vt 0.0000000e+0 0.88888889
vt 0.0000000e+0 0.94444444
vt 1.1102230e-16 0.88888889
vt 0.27777778 0.94444444
vt 0.27777778 0.88888889
vt 0.27777778 0.94444444
vt 0.33000000 -1.5277778e-3
vt 0.33000000 0.41513889
vt 0.33011502 1.8630634e-3
vt 0.33011502 0.41852973
vt 0.55555556 0.88888889
vt 0.55555556 0.94444444
vt 0.55555556 0.94444444
vt 0.66206816 1.1729693e-3
vt 0.66206816 0.41783964
vt 0.66333333 -1.5277778e-3
vt 0.66333333 0.41513889
vt 0.83333333 0.88888889
vt 0.83333333 0.83333333
vt 0.83333333 0.88888889
vt 0.83333333 0.41666667
vt 0.83333333 0.94444444
vt 0.83333333 0.0000000e+0
vt 0.83333333 0.83333333
vt 0.88888889 0.41666667
vt 0.88888889 0.0000000e+0
vt 0.88888889 1.1102230e-16
vt 0.88888889 0.83333333
vt 0.88888889 0.34722222
vt 0.94444444 0.0000000e+0
vt 0.94444444 0.34722222
vt 0.94444444 0.0000000e+0
vt 0.99540149 1.1729693e-3
vt 0.99540149 0.50117297
vt 0.99666667 -1.5277778e-3
vt 0.99666667 0.49847222
vt 1.00000000 0.34722222
vt 1.00000000 0.0000000e+0
vn -1.00000000 0.0000000e+0 0.0000000e+0
vn 0.0000000e+0 -1.00000000 0.0000000e+0
vn 0.0000000e+0 0.0000000e+0 -1.00000000
vn -1.00000000 0.0000000e+0 0.0000000e+0
vn 0.0000000e+0 -1.00000000 0.0000000e+0
vn 0.0000000e+0 0.0000000e+0 1.00000000
vn 0.0000000e+0 1.00000000 0.0000000e+0
vn -1.00000000 0.0000000e+0 0.0000000e+0
vn 0.0000000e+0 0.0000000e+0 -1.00000000
vn 0.0000000e+0 0.0000000e+0 -1.00000000
vn 0.0000000e+0 1.00000000 0.0000000e+0
vn -1.00000000 0.0000000e+0 0.0000000e+0
vn 0.0000000e+0 0.0000000e+0 1.00000000
vn 0.0000000e+0 0.0000000e+0 1.00000000
vn 1.00000000 0.0000000e+0 0.0000000e+0
vn 0.0000000e+0 -1.00000000 0.0000000e+0
vn 0.0000000e+0 0.0000000e+0 -1.00000000
vn 1.00000000 0.0000000e+0 0.0000000e+0
vn 0.0000000e+0 -1.00000000 0.0000000e+0
vn 0.0000000e+0 0.0000000e+0 1.00000000
vn 0.0000000e+0 1.00000000 0.0000000e+0
vn 1.00000000 0.0000000e+0 0.0000000e+0
vn 0.0000000e+0 0.0000000e+0 -1.00000000
vn 0.0000000e+0 0.0000000e+0 -1.00000000
vn 0.0000000e+0 1.00000000 0.0000000e+0
vn 1.00000000 0.0000000e+0 0.0000000e+0
vn 0.0000000e+0 0.0000000e+0 1.00000000
vn 0.0000000e+0 0.0000000e+0 1.00000000
vn 0.0000000e+0 -1.00000000 0.0000000e+0
vn 1.00000000 0.0000000e+0 0.0000000e+0
vn 0.0000000e+0 0.0000000e+0 -1.00000000
vn 0.0000000e+0 -1.00000000 0.0000000e+0
vn 0.0000000e+0 0.0000000e+0 -1.00000000
vn -1.00000000 0.0000000e+0 0.0000000e+0
vn 0.0000000e+0 -1.00000000 0.0000000e+0
vn 0.0000000e+0 0.0000000e+0 1.00000000
vn 1.00000000 0.0000000e+0 0.0000000e+0
vn 0.0000000e+0 -1.00000000 0.0000000e+0
vn -1.00000000 0.0000000e+0 0.0000000e+0
vn 0.0000000e+0 0.0000000e+0 1.00000000
vn 0.0000000e+0 0.0000000e+0 1.00000000
vn 0.0000000e+0 -1.00000000 0.0000000e+0
vn 1.00000000 0.0000000e+0 0.0000000e+0
vn 0.0000000e+0 0.0000000e+0 1.00000000
vn 0.0000000e+0 -1.00000000 0.0000000e+0
vn -1.00000000 0.0000000e+0 0.0000000e+0
vn 0.0000000e+0 0.0000000e+0 1.00000000
vn 0.0000000e+0 0.0000000e+0 1.00000000
vn 0.0000000e+0 0.0000000e+0 -1.00000000
vn 0.0000000e+0 -1.00000000 0.0000000e+0
vn -1.00000000 0.0000000e+0 0.0000000e+0
vn 0.0000000e+0 0.0000000e+0 -1.00000000
vn 0.0000000e+0 -1.00000000 0.0000000e+0
vn 1.00000000 0.0000000e+0 0.0000000e+0
vn 0.0000000e+0 0.0000000e+0 -1.00000000
vn 0.0000000e+0 0.0000000e+0 -1.00000000
g WallDoor_Wall
usemtl Wall
s 1
f 2/30/4 4/33/12 3/29/8 1/26/1
f 4/4/14 13/15/44 14/20/48 8/39/28
f 6/16/19 12/25/38 10/27/32 5/17/16
f 7/2/24 15/13/52 16/22/56 3/41/10
f 13/34/43 11/32/37 9/35/30 16/36/54
s 2
f 2/3/6 11/14/36 13/15/41 4/4/13
f 3/41/9 16/22/55 9/21/31 1/40/3
f 4/5/11 8/24/25 7/23/21 3/6/7
f 5/1/17 10/12/33 15/13/49 7/2/23
f 8/39/27 14/20/47 12/19/40 6/38/20
f 16/18/53 15/11/50 14/10/45 13/16/42
s 3
f 1/9/2 9/7/29 11/8/35 2/10/5
f 5/31/15 7/30/22 8/26/26 6/28/18
f 15/36/51 10/37/34 12/43/39 14/42/46
