# Exported from Wings 3D 2.2.5
mtllib WardrobeDoorLeft.mtl
o WardrobeDoorLeft
#28 vertices, 22 faces
v 0.0000000e+0 -4.2862638e-17 1.40000000
v 0.0000000e+0 2.50000000 1.40000000
v 1.00000000 -4.2862638e-17 1.40000000
v 1.00000000 2.50000000 1.40000000
v 0.0000000e+0 2.50000000 1.50000000
v 0.0000000e+0 -4.2862638e-17 1.50000000
v 1.00000000 -4.2862638e-17 1.50000000
v 1.00000000 2.50000000 1.50000000
v 0.0000000e+0 1.23333333 1.50000000
v 0.0000000e+0 1.36666667 1.50000000
v 1.00000000 1.36666667 1.50000000
v 1.00000000 1.23333333 1.50000000
v 0.85000000 1.36666667 1.50000000
v 0.85000000 1.23333333 1.50000000
v 0.90000000 1.23333333 1.50000000
v 0.90000000 1.36666667 1.50000000
v 0.90000000 1.36666667 1.55000000
v 0.85000000 1.36666667 1.55000000
v 0.85000000 1.23333333 1.55000000
v 0.90000000 1.23333333 1.55000000
v 0.90000000 1.36666667 1.65000000
v 0.85000000 1.36666667 1.65000000
v 0.85000000 1.23333333 1.65000000
v 0.90000000 1.23333333 1.65000000
v 0.55000000 1.23333333 1.65000000
v 0.55000000 1.36666667 1.65000000
v 0.55000000 1.36666667 1.55000000
v 0.55000000 1.23333333 1.55000000
vt 0.0000000e+0 0.47435897
vt 0.0000000e+0 0.96153846
vt 0.0000000e+0 1.00000000
vt 9.4368957e-16 2.2204460e-16
vt 9.4368957e-16 0.96153846
vt 1.1934898e-15 0.52564103
vt 0.32692308 0.47435897
vt 0.32692308 0.52564103
vt 0.34615385 0.52564103
vt 0.34615385 0.47435897
vt 0.38461538 0.96153846
vt 0.38461538 0.96153846
vt 0.38461538 1.00000000
vt 0.38461538 0.96153846
vt 0.38461538 1.00000000
vt 0.38461538 0.47435897
vt 0.38461538 0.52564103
vt 0.38461538 0.96153846
vt 0.38461538 0.0000000e+0
vt 0.38461538 0.47435897
vt 0.38461538 0.52564103
vt 0.38461538 0.0000000e+0
vt 0.42307692 0.96153846
vt 0.42307692 5.5511151e-17
vt 0.42307692 1.6653345e-16
vt 0.42307692 0.96153846
vt 0.76923077 1.00000000
vt 0.76923077 0.96153846
vt 0.80769231 0.0000000e+0
vt 0.80769231 1.1102230e-16
vt 0.80769231 0.96153846
vt 0.80769231 0.96153846
vt 0.84615385 0.0000000e+0
vt 0.84615385 0.47435897
vt 0.84615385 0.52564103
vt 0.84615385 0.96153846
vt 0.84615385 0.0000000e+0
vt 0.84615385 3.8461538e-2
vt 0.84615385 5.7692308e-2
vt 0.84615385 9.6153846e-2
vt 0.84615385 0.11538462
vt 0.84615385 0.11538462
vt 0.84615385 0.16666667
vt 0.84615385 0.16666667
vt 0.84615385 0.21794872
vt 0.84615385 0.21794872
vt 0.84615385 0.26923077
vt 0.86538462 5.7692308e-2
vt 0.86538462 9.6153846e-2
vt 0.86538462 0.11538462
vt 0.88461538 0.21794872
vt 0.88461538 0.26923077
vt 0.90384615 0.21794872
vt 0.90384615 0.26923077
vt 0.90384615 0.26923077
vt 0.90384615 0.26923077
vt 0.90384615 0.32051282
vt 0.92307692 0.21794872
vt 0.92307692 0.26923077
vt 0.94230769 0.26923077
vt 0.94230769 0.32051282
vt 0.96153846 1.0408341e-17
vt 0.96153846 3.8461538e-2
vt 0.96153846 0.11538462
vt 0.96153846 0.16666667
vt 0.96153846 5.7692308e-2
vt 0.96153846 0.16666667
vt 0.96153846 0.21794872
vt 0.98076923 0.0000000e+0
vt 0.98076923 3.8461538e-2
vt 0.98076923 5.7692308e-2
vt 0.98076923 5.7692308e-2
vt 0.98076923 9.6153846e-2
vt 0.98076923 0.11538462
vt 0.98076923 0.16666667
vn 0.0000000e+0 0.0000000e+0 -1.00000000
vn -1.00000000 0.0000000e+0 0.0000000e+0
vn 0.0000000e+0 -1.00000000 0.0000000e+0
vn 0.0000000e+0 0.0000000e+0 -1.00000000
vn -1.00000000 0.0000000e+0 0.0000000e+0
vn 0.0000000e+0 1.00000000 0.0000000e+0
vn 0.0000000e+0 0.0000000e+0 -1.00000000
vn 0.0000000e+0 -1.00000000 0.0000000e+0
vn 1.00000000 0.0000000e+0 0.0000000e+0
vn 0.0000000e+0 0.0000000e+0 -1.00000000
vn 1.00000000 0.0000000e+0 0.0000000e+0
vn 0.0000000e+0 1.00000000 0.0000000e+0
vn -1.00000000 0.0000000e+0 0.0000000e+0
vn 0.0000000e+0 1.00000000 0.0000000e+0
vn -1.9592171e-16 0.0000000e+0 1.00000000
vn 0.0000000e+0 0.0000000e+0 1.00000000
vn -1.00000000 0.0000000e+0 0.0000000e+0
vn 0.0000000e+0 -1.00000000 0.0000000e+0
vn 0.0000000e+0 0.0000000e+0 1.00000000
vn 0.0000000e+0 -1.00000000 0.0000000e+0
vn 1.00000000 0.0000000e+0 0.0000000e+0
vn 1.00000000 0.0000000e+0 0.0000000e+0
vn 0.0000000e+0 1.00000000 0.0000000e+0
vn -1.9592171e-16 0.0000000e+0 1.00000000
vn 0.0000000e+0 0.0000000e+0 1.00000000
vn -1.00000000 0.0000000e+0 0.0000000e+0
vn 0.0000000e+0 0.0000000e+0 1.00000000
vn -1.00000000 0.0000000e+0 0.0000000e+0
vn 0.0000000e+0 0.0000000e+0 1.00000000
vn -1.9592171e-16 0.0000000e+0 1.00000000
vn 1.00000000 0.0000000e+0 0.0000000e+0
vn -1.9592171e-16 0.0000000e+0 1.00000000
vn 0.0000000e+0 0.0000000e+0 1.00000000
vn 0.0000000e+0 0.0000000e+0 1.00000000
vn 1.00000000 0.0000000e+0 0.0000000e+0
vn 0.0000000e+0 0.0000000e+0 1.00000000
vn 0.0000000e+0 0.0000000e+0 1.00000000
vn -1.9592171e-16 0.0000000e+0 1.00000000
vn 0.0000000e+0 1.00000000 0.0000000e+0
vn -1.00000000 0.0000000e+0 0.0000000e+0
vn 0.0000000e+0 0.0000000e+0 1.00000000
vn 0.0000000e+0 0.0000000e+0 1.00000000
vn -1.00000000 0.0000000e+0 0.0000000e+0
vn 0.0000000e+0 -1.00000000 0.0000000e+0
vn 0.0000000e+0 0.0000000e+0 1.00000000
vn 0.0000000e+0 0.0000000e+0 1.00000000
vn 0.0000000e+0 -1.00000000 0.0000000e+0
vn 1.00000000 0.0000000e+0 0.0000000e+0
vn -1.9592171e-16 0.0000000e+0 1.00000000
vn 0.0000000e+0 0.0000000e+0 1.00000000
vn 0.0000000e+0 1.00000000 0.0000000e+0
vn 1.00000000 0.0000000e+0 0.0000000e+0
vn 0.0000000e+0 1.00000000 0.0000000e+0
vn 1.00000000 0.0000000e+0 0.0000000e+0
vn 0.0000000e+0 1.00000000 0.0000000e+0
vn 1.00000000 0.0000000e+0 0.0000000e+0
vn 0.0000000e+0 1.00000000 0.0000000e+0
vn -1.00000000 0.0000000e+0 0.0000000e+0
vn 0.0000000e+0 1.00000000 0.0000000e+0
vn 0.0000000e+0 1.00000000 0.0000000e+0
vn 0.0000000e+0 0.0000000e+0 -1.00000000
vn -1.00000000 0.0000000e+0 0.0000000e+0
vn 0.0000000e+0 -1.00000000 0.0000000e+0
vn 0.0000000e+0 -1.00000000 0.0000000e+0
vn 0.0000000e+0 0.0000000e+0 -1.00000000
vn 0.0000000e+0 -1.00000000 0.0000000e+0
vn 0.0000000e+0 -1.00000000 0.0000000e+0
vn 1.00000000 0.0000000e+0 0.0000000e+0
vn 0.0000000e+0 -1.00000000 0.0000000e+0
vn 1.00000000 0.0000000e+0 0.0000000e+0
vn 0.0000000e+0 0.0000000e+0 1.00000000
vn 0.0000000e+0 1.00000000 0.0000000e+0
vn 1.00000000 0.0000000e+0 0.0000000e+0
vn 0.0000000e+0 0.0000000e+0 1.00000000
vn 0.0000000e+0 1.00000000 0.0000000e+0
vn 0.0000000e+0 0.0000000e+0 1.00000000
vn 0.0000000e+0 1.00000000 0.0000000e+0
vn 0.0000000e+0 0.0000000e+0 1.00000000
vn 0.0000000e+0 -1.00000000 0.0000000e+0
vn 0.0000000e+0 0.0000000e+0 1.00000000
vn 0.0000000e+0 -1.00000000 0.0000000e+0
vn 0.0000000e+0 0.0000000e+0 1.00000000
vn 0.0000000e+0 -1.00000000 0.0000000e+0
vn 1.00000000 0.0000000e+0 0.0000000e+0
vn -1.00000000 0.0000000e+0 0.0000000e+0
vn 0.0000000e+0 0.0000000e+0 1.00000000
vn 0.0000000e+0 -1.00000000 0.0000000e+0
vn -1.00000000 0.0000000e+0 0.0000000e+0
vn 0.0000000e+0 0.0000000e+0 1.00000000
vn 0.0000000e+0 1.00000000 0.0000000e+0
vn -1.00000000 0.0000000e+0 0.0000000e+0
vn 0.0000000e+0 1.00000000 0.0000000e+0
vn 0.0000000e+0 0.0000000e+0 -1.00000000
vn -1.00000000 0.0000000e+0 0.0000000e+0
vn 0.0000000e+0 0.0000000e+0 -1.00000000
vn 0.0000000e+0 -1.00000000 0.0000000e+0
g WardrobeDoorLeft_Black
usemtl Black
s 1
f 17/52/56 21/47/73 24/46/84 20/51/70
f 19/44/65 28/67/95 27/68/93 18/45/61
f 22/65/76 26/43/89 25/42/86 23/64/80
s 2
f 18/63/60 27/38/92 26/37/90 22/62/77
f 20/40/69 24/39/83 23/48/79 19/49/64
s 3
f 18/63/59 22/62/75 21/69/72 17/70/55
f 23/48/81 25/72/87 28/73/96 19/49/66
s 4
f 22/65/74 23/64/78 24/74/82 21/75/71
f 26/61/88 27/57/91 28/56/94 25/60/85
g WardrobeDoorLeft_Wood
usemtl Wood
s 1
f 2/3/6 5/2/14 8/14/23 4/15/12
f 3/13/8 7/12/20 6/28/18 1/27/3
f 9/1/27 14/7/42 13/8/37 10/6/29
f 11/17/33 16/9/50 15/10/46 12/16/36
f 13/66/39 18/63/57 17/70/53 16/71/51
f 15/41/47 20/40/67 19/49/63 14/50/44
s 2
f 1/30/2 6/33/17 9/34/26 10/35/28 5/36/13 2/31/5
f 4/23/11 8/18/22 11/21/31 12/20/35 7/22/21 3/24/9
f 14/53/43 19/58/62 18/59/58 13/55/40
f 16/54/52 17/52/54 20/51/68 15/53/48
s 3
f 2/32/4 4/26/10 3/25/7 1/29/1
f 6/4/16 7/19/19 12/16/34 15/10/45 14/7/41 9/1/25
f 8/11/24 5/5/15 10/6/30 13/8/38 16/9/49 11/17/32
